<svg xmlns="http://www.w3.org/2000/svg" width="43" height="43" viewBox="0 0 43 43" fill="none">
  <g filter="url(#filter0_d_145_32)">
    <path d="M19.2197 28.0675C20.2451 28.0675 21.0763 28.898 21.0763 29.9226C21.0763 30.9472 20.2451 31.7778 19.2197 31.7778C18.1944 31.7778 17.3632 30.9472 17.3632 29.9226C17.3632 28.898 18.1944 28.0675 19.2197 28.0675Z" stroke="white" stroke-width="2"/>
    <path d="M27.3887 28.0675C28.414 28.0675 29.2452 28.898 29.2452 29.9226C29.2452 30.9472 28.414 31.7778 27.3887 31.7778C26.3633 31.7778 25.5321 30.9472 25.5321 29.9226C25.5321 28.898 26.3633 28.0675 27.3887 28.0675Z" stroke="white" stroke-width="2"/>
    <path d="M15.1353 21.0179C15.1353 19.2933 15.1371 18.0905 15.2571 17.183C15.3736 16.3014 15.5867 15.8346 15.9136 15.5021C16.2404 15.1696 16.6993 14.9528 17.5659 14.8342C18.458 14.7122 19.6404 14.7103 21.3356 14.7103H24.7809C26.7496 14.7103 28.1309 14.7125 29.1575 14.8607C30.1596 15.0054 30.6603 15.2691 30.991 15.6662C31.3217 16.0634 31.4951 16.6091 31.4707 17.6384C31.4457 18.693 31.2206 20.0794 30.897 22.0548C30.6576 23.516 30.4899 24.5294 30.2676 25.2891C30.0524 26.0245 29.8147 26.4136 29.5 26.6848C29.1853 26.9559 28.769 27.1305 28.0205 27.2256C27.2474 27.3237 26.2372 27.3254 24.7809 27.3254H21.3356C19.6404 27.3254 18.458 27.3235 17.5659 27.2015C16.6993 27.0829 16.2404 26.8662 15.9136 26.5336C15.5867 26.2011 15.3736 25.7343 15.2571 24.8527C15.1371 23.9452 15.1353 22.7424 15.1353 21.0179Z" stroke="white" stroke-width="2"/>
    <path d="M15.1352 20.6468V13.2698C15.1352 12.0162 14.1122 11 12.8502 11H11.4221" stroke="white" stroke-width="2" stroke-linecap="round"/>
  </g>
  <defs>
    <filter id="filter0_d_145_32" x="0.422119" y="0" width="42.0509" height="42.7778" filterUnits="userSpaceOnUse" color-interpolation-filters="sRGB">
      <feFlood flood-opacity="0" result="BackgroundImageFix"/>
      <feColorMatrix in="SourceAlpha" type="matrix" values="0 0 0 0 0 0 0 0 0 0 0 0 0 0 0 0 0 0 127 0" result="hardAlpha"/>
      <feOffset/>
      <feGaussianBlur stdDeviation="5"/>
      <feColorMatrix type="matrix" values="0 0 0 0 0 0 0 0 0 0 0 0 0 0 0 0 0 0 1 0"/>
      <feBlend mode="normal" in2="BackgroundImageFix" result="effect1_dropShadow_145_32"/>
      <feBlend mode="normal" in="SourceGraphic" in2="effect1_dropShadow_145_32" result="shape"/>
    </filter>
  </defs>
</svg>