<svg width="15" height="10" viewBox="0 0 15 10" fill="none" xmlns="http://www.w3.org/2000/svg">
<path d="M7.54113 10C6.18933 10 4.83752 10 3.49737 10C2.82146 10 2.57674 9.81468 2.39028 9.16606C1.88918 7.41712 1.38808 5.66817 0.898632 3.90764C0.840365 3.68757 0.805404 3.44434 0.840365 3.22427C0.933593 2.73781 1.43469 2.49458 1.9591 2.63357C2.73989 2.84205 3.50902 3.03895 4.2898 3.2706C4.49957 3.32851 4.60445 3.28218 4.72098 3.12003C5.40854 2.2166 6.10775 1.33634 6.80696 0.444487C7.2731 -0.146217 7.87909 -0.146218 8.33357 0.432904C9.03278 1.32475 9.73199 2.2166 10.4195 3.10845C10.5594 3.30535 10.6876 3.31693 10.909 3.25902C11.6548 3.03895 12.4006 2.84205 13.1465 2.64515C13.9389 2.43667 14.5099 2.99262 14.2885 3.78023C13.7758 5.59867 13.2397 7.40553 12.7153 9.22398C12.5521 9.77993 12.2841 9.98842 11.7014 9.98842C10.3263 9.98842 8.93955 9.98842 7.54113 10C7.54113 9.98842 7.54113 9.98842 7.54113 10ZM2.98461 4.71841C2.98461 4.79948 2.97296 4.82265 2.98461 4.8574C3.2876 5.92298 3.60225 6.98857 3.89358 8.05415C3.95185 8.25105 4.05673 8.26263 4.20823 8.26263C6.4457 8.26263 8.69483 8.26263 10.9323 8.26263C11.1188 8.26263 11.2003 8.2163 11.2586 8.03098C11.5383 7.02331 11.8296 6.01564 12.121 5.00797C12.1443 4.92689 12.1559 4.84581 12.1792 4.72999C11.6315 4.88056 11.1304 5.00797 10.6293 5.15854C10.1515 5.29753 9.77861 5.17012 9.48727 4.77632C8.9279 4.04663 8.35688 3.32851 7.79751 2.59882C7.72759 2.50616 7.65767 2.42508 7.57609 2.32084C6.93515 3.15478 6.30586 3.95397 5.68823 4.75315C5.32697 5.21645 5.05894 5.30911 4.49957 5.14696C3.99847 4.99639 3.50902 4.8574 2.98461 4.71841Z" fill="white"/>
</svg>
