<svg xmlns="http://www.w3.org/2000/svg" width="92" height="92" viewBox="0 0 92 92" fill="none">
  <g clip-path="url(#clip0_106_1397)">
    <path d="M27.5908 31.4885C29.2749 33.8579 30.6359 36.4132 32.0231 38.9534C31.9867 38.9798 31.9503 39.0063 31.9139 39.0327C31.1808 38.7208 30.4476 38.4088 29.7145 38.0969C29.6949 38.1402 29.6752 38.1836 29.6556 38.2269C30.4219 38.7051 31.2036 39.161 31.9469 39.6726C32.2407 39.8748 32.5081 40.1671 32.6863 40.4767C33.4394 41.7851 34.1644 43.1101 34.8723 44.4436C34.9755 44.6379 35.004 44.9322 34.9421 45.1437C34.6243 46.2301 34.0606 47.1582 33.036 47.7516C33.0616 47.7951 33.0871 47.8386 33.1127 47.8821C33.6867 47.6739 34.2607 47.4656 34.8916 47.2367C34.5348 47.7382 34.5397 48.4609 33.7688 48.703C32.9135 48.9716 32.0704 49.0137 31.2103 48.7656C31.0837 48.729 30.9511 48.7134 30.7815 48.658C30.717 48.6034 30.6922 48.5792 30.6675 48.5549C30.6527 48.5442 30.638 48.5335 30.5822 48.4965C30.2874 48.285 30.0338 48.0997 29.7801 47.9144C29.76 47.9324 29.7399 47.9504 29.7199 47.9685C29.9326 48.2461 30.1454 48.5238 30.3581 48.8015C31.443 50.0686 32.7839 50.5936 34.5879 50.145C34.1752 50.7523 33.8394 51.2463 33.5261 51.7073C33.9586 51.7469 34.0775 51.6499 35.654 49.8922C35.5046 50.9127 34.9884 51.6896 34.2402 52.3352C34.2607 52.37 34.2812 52.4048 34.3017 52.4396C34.7706 52.2068 35.2395 51.9741 35.7094 51.7408C35.7764 52.3807 34.1654 53.3024 33.0591 53.263C31.8956 53.2215 31.042 52.562 30.2215 51.8166C30.4966 52.6636 30.9249 53.3887 31.7145 54.0105C30.6417 54.2647 29.6492 54.4999 28.5907 54.7274C28.4765 54.7736 28.3996 54.8214 28.3867 54.8826C28.3662 54.9793 28.3888 55.0851 28.3931 55.1871C28.2905 55.1681 28.1885 55.1371 28.0853 55.1325C27.8881 55.1238 27.6903 55.13 27.4927 55.13C27.48 55.1859 27.4673 55.2418 27.4546 55.2978C27.6507 55.3707 27.8468 55.4437 28.0428 55.5167C28.0428 55.5167 28.0349 55.5199 28.0395 55.5473C28.1597 55.5872 28.2754 55.5998 28.391 55.6123C28.4326 55.615 28.4741 55.6178 28.5544 55.6677C28.6969 55.7341 28.8005 55.7533 28.9041 55.7725C28.9314 55.7548 28.9592 55.7541 29.0033 55.8217C29.1262 56.3362 28.7246 56.2947 28.4835 56.4126C28.2579 56.3462 28.0324 56.2797 27.7793 56.1584C27.6106 55.9964 27.4807 55.8629 27.3227 55.7954C27.2629 55.7699 27.1381 55.8965 27.0429 55.9538C26.7345 55.8762 26.4261 55.7986 26.0818 55.6734C26.0697 55.4462 26.095 55.2669 26.1166 55.0871C26.1294 54.9806 26.1364 54.8734 26.146 54.7666C26.3314 54.7211 26.5169 54.6757 26.7387 54.6687C26.8967 54.7974 27.0184 54.8877 27.14 54.9779C27.1975 54.8338 27.2551 54.6898 27.3127 54.5457C27.5324 54.5144 27.752 54.4831 27.9626 54.453C27.424 53.4503 26.9053 52.4848 26.388 51.4545C26.3414 51.2738 26.5833 51.0175 26.2258 51.051C25.8789 50.2045 25.47 49.3777 25.1954 48.5084C23.6476 43.6073 23.5515 38.6819 25.1477 33.7767C26.6582 29.135 29.3628 25.2926 33.1473 22.214C36.3305 19.6244 39.9294 17.9163 43.9785 17.2022C44.9626 17.0287 45.9638 16.9526 46.9571 16.8317C46.9809 16.8751 47.0048 16.9186 47.0286 16.962C46.0743 17.7789 45.1199 18.5957 44.2285 19.3586C44.3059 18.6645 44.6909 18.0051 45.5204 17.3243C45.3141 17.3549 45.2027 17.356 45.1015 17.3887C43.8232 17.8015 42.9947 18.6356 42.6769 19.9607C42.4308 20.9869 41.8993 21.826 40.99 22.4044C41.7324 22.555 43.1136 21.2498 43.2788 19.8787C43.3859 20.4874 43.2752 21.061 42.9545 21.5945C42.5399 22.2838 41.9214 22.7356 41.2209 23.1067C40.326 23.5809 39.3849 24.0015 38.577 24.5986C37.1279 25.6697 36.4367 27.2455 36.0284 28.9571C35.9868 29.1315 35.9591 29.3092 35.9199 29.4842C35.9151 29.5055 35.8782 29.5197 35.8103 29.5738C35.6578 28.7584 35.7899 27.9913 36.0234 27.257C36.2591 26.516 36.5979 25.8078 36.9299 24.9908C36.7764 25.1188 36.6735 25.1858 36.594 25.2738C35.8267 26.1233 35.3963 27.1163 35.29 28.2602C35.2721 28.4529 35.1528 28.6855 35.0047 28.8088C34.0729 29.5855 33.6247 30.5426 33.7599 31.769C33.787 32.0147 33.7396 32.301 33.6326 32.5234C33.2191 33.3828 33.1293 34.2942 33.1426 35.3111C33.0425 35.1863 32.9931 35.1247 32.9108 35.019C31.2397 33.4142 29.4269 32.0859 27.4665 30.9034C27.3732 30.8437 27.3028 30.8041 27.215 30.7424C27.157 30.7298 27.1165 30.7394 27.0759 30.7489C27.1175 30.8153 27.1591 30.8818 27.209 30.9761C27.342 31.1657 27.4668 31.3275 27.5924 31.4877C27.5932 31.486 27.5908 31.4885 27.5908 31.4885ZM27.9757 53.6047C28.0084 53.548 28.0411 53.4913 28.0738 53.4346C28.0479 53.4243 28.022 53.4139 27.9961 53.4035C27.9714 53.4696 27.9468 53.5356 27.9757 53.6047Z" fill="#F9F8F7"/>
    <path d="M60.2842 55.3905C59.205 55.7476 58.1258 56.1047 56.9972 56.4382C56.8001 56.4221 56.6525 56.4297 56.5049 56.4373C56.5383 56.4984 56.5717 56.5594 56.6051 56.6204C56.528 56.6581 56.4509 56.6958 56.3154 56.7251C56.1921 56.7622 56.1271 56.8077 56.0622 56.8533C55.5341 57.1035 55.006 57.3536 54.4155 57.6033C54.2939 57.6507 54.2346 57.6986 54.1753 57.7464C54.1753 57.7464 54.1442 57.7765 54.0907 57.7742C53.9635 57.8264 53.8899 57.881 53.8162 57.9355C53.8162 57.9355 53.7907 57.9638 53.7424 57.9488C53.2565 57.6192 53.2842 57.9461 53.2825 58.2324C52.4586 58.8198 51.6347 59.4072 50.7497 60.0049C50.625 60.0802 50.5614 60.1451 50.4978 60.2101C50.3791 60.3233 50.2604 60.4364 50.0812 60.5595C49.9723 60.6351 49.9238 60.701 49.8753 60.7668C49.8768 60.7963 49.8642 60.8174 49.7861 60.833C49.6898 60.8974 49.6449 60.9588 49.6 61.0203C49.4377 61.1894 49.2754 61.3585 49.0626 61.5126C48.8767 61.4828 48.7412 61.4681 48.6056 61.4532C48.6055 61.4531 48.6053 61.4529 48.6054 61.4175C48.6061 61.2877 48.6066 61.1933 48.6072 61.0989C49.0082 60.6548 49.4092 60.2108 49.8764 59.7568C50.1834 59.7623 50.2466 59.6347 50.2045 59.4221C50.3841 59.2588 50.5637 59.0956 50.7998 58.9347C51.2016 58.9146 51.4483 58.7787 51.4792 58.3949C51.7196 58.2159 51.9601 58.0369 52.2652 57.8556C52.4039 57.7898 52.478 57.7261 52.552 57.6625C52.6259 57.6108 52.6998 57.559 52.8181 57.5244C52.9108 57.4929 52.9591 57.4442 53.0075 57.3955C54.3914 56.7471 55.7708 56.0888 57.1619 55.4563C57.594 55.2599 58.058 55.1337 58.5457 55.0035C58.6241 55.0588 58.6643 55.0859 58.7044 55.113C58.7223 55.0453 58.7402 54.9776 58.7581 54.9099C61.5889 53.9828 64.4603 53.2153 67.3992 52.7136C67.4554 52.704 67.5111 52.6918 67.6001 52.5841C65.0542 51.4832 62.5083 50.3823 59.9624 49.2814C61.6748 49.2668 63.194 48.8917 64.2946 47.502C64.7624 46.9114 64.9685 46.2266 64.8426 45.3835C64.4863 46.1872 63.942 46.6114 63.1128 46.5533C62.49 46.5097 61.975 46.2529 61.6668 45.7547C62.1598 45.7014 62.6605 45.7014 63.1306 45.5816C63.6266 45.4552 64.0022 45.1258 64.1291 44.5254C64.1365 44.4164 64.1332 44.3644 64.126 44.251C64.0771 44.3544 64.0546 44.4018 64.0322 44.4492C63.7539 44.8837 63.3688 45.1165 62.8409 45.1059C62.057 45.0901 61.4891 44.2681 61.8104 43.554C61.8886 43.3803 62.117 43.234 62.309 43.1584C63.5519 42.6694 63.9577 42.2984 64.5271 41.1323C64.4929 41.4648 64.4587 41.7973 64.422 42.1551C65.6338 41.1893 65.9896 39.9109 65.8398 38.4591C64.2996 40.024 62.7711 41.6092 61.2064 43.1579C59.6559 44.6923 58.1385 46.2735 56.3033 47.3844C56.7343 46.9044 57.1566 46.349 57.6671 45.892C58.0852 45.5177 58.315 45.1077 58.3703 44.5503C58.4355 44.6946 58.5007 44.8389 58.5243 44.891C58.8838 44.5743 59.2922 44.2567 59.6409 43.8832C59.7555 43.7604 59.7154 43.4931 59.7872 43.2589C59.9319 43.1886 60.0355 43.1513 60.1391 43.114C60.2121 43.123 60.3215 43.1679 60.3528 43.1361C61.7542 41.7109 63.1461 40.2766 64.545 38.8491C65.1564 38.2253 65.528 37.4733 65.7738 36.6475C65.8235 36.4805 65.8889 36.3181 66.0495 36.1634C66.0312 36.5328 66.0128 36.9021 65.9856 37.3184C65.9864 37.3889 65.9961 37.4124 66.0059 37.4359C66.0164 37.4164 66.027 37.3969 66.0376 37.3774C66.8809 36.4972 67.7266 35.6193 68.5669 34.7363C69.7222 33.5225 70.8734 32.3048 72.0606 31.0362C72.0421 30.9783 71.9893 30.973 71.9365 30.9677C70.8985 31.4607 69.8488 31.9308 68.8245 32.4507C65.1289 34.3265 61.4668 36.2635 58.0915 38.6892C57.4124 39.1772 56.7815 39.7324 56.0843 40.242C56.0037 40.2013 55.9671 40.1753 55.9305 40.1493C57.1376 38.8679 58.6057 37.9206 60.0447 36.9362C60.1675 36.8522 60.2961 36.7765 60.4738 36.6704C60.825 36.4552 61.1243 36.2666 61.4237 36.0781C61.4044 36.0451 61.385 36.0122 61.3657 35.9793C61.0288 36.1713 60.6919 36.3633 60.355 36.5553C57.9209 37.8361 55.5103 39.1542 53.3678 41.0008C53.8167 39.8299 54.71 39.1478 55.6547 38.516C57.899 37.015 60.3002 35.8119 62.7574 34.7004C65.3441 33.5303 67.8862 32.262 70.4615 31.0663C71.5681 30.5525 72.7092 30.1133 73.8971 29.7182C73.2799 30.3958 72.667 31.0776 72.0442 31.75C71.3941 32.4519 70.7282 33.1392 70.0862 33.8483C70.0018 33.9415 69.9612 34.142 69.9961 34.266C70.9736 37.7433 71.2768 41.2736 70.6894 44.8414C70.1039 48.3977 68.8246 51.6939 66.6896 54.6285C66.4345 54.979 66.1784 55.3288 65.8665 55.6943C65.7355 55.7375 65.6607 55.7652 65.5812 55.7811C65.5691 55.7649 65.5618 55.7606 65.5545 55.7563C65.565 55.7685 65.5755 55.7808 65.586 55.8267C65.5859 55.9277 65.5859 55.9951 65.5859 56.0625C65.4882 56.1987 65.3905 56.3349 65.2579 56.4576C65.1802 56.4368 65.1374 56.4296 65.0945 56.4224C65.138 56.4536 65.1814 56.4848 65.2249 56.516C65.1547 56.6069 65.0844 56.6978 65.0047 56.8009C65.3123 57.0131 65.603 57.2137 65.88 57.4471C65.8164 57.5089 65.7665 57.5378 65.6417 57.6101C65.8675 57.6381 66.0056 57.6553 66.1437 57.6724C66.19 57.7107 66.2364 57.749 66.2578 57.827C66.2154 57.9353 66.1979 58.004 66.1803 58.0727C66.2572 58.0469 66.334 58.0211 66.4108 57.9953C66.6773 58.7951 67.3592 59.1339 68.0438 59.4726C68.1758 59.5379 68.2948 59.6293 68.445 59.7664C68.5321 60.0464 68.659 60.1543 68.897 60.0668C69.166 60.1165 69.4333 60.1794 69.7042 60.2134C70.4056 60.3012 71.1086 60.3764 71.8467 60.4976C71.9395 60.5448 71.9967 60.5509 72.0539 60.557C72.7818 60.7584 73.324 61.2337 73.8363 61.8229C73.7474 62.0602 73.6528 62.2358 73.5582 62.4114C73.1719 62.1334 72.7856 61.8554 72.4028 61.5158C72.3836 61.4139 72.3608 61.3735 72.338 61.3331C72.322 61.3438 72.306 61.3544 72.29 61.3651C72.3281 61.416 72.3663 61.4669 72.4045 61.5178C71.756 61.4101 71.107 61.2104 70.4593 61.2143C69.2001 61.2221 68.0076 61.6184 66.7993 62.0232C66.7578 61.9518 66.7557 61.9239 66.7536 61.896C67.3345 61.6284 67.9153 61.3607 68.5626 61.0954C68.7359 61.0704 68.8429 61.0429 68.9498 61.0155C68.9389 60.9828 68.9281 60.9501 68.9172 60.9173C68.8245 60.9421 68.7318 60.9669 68.639 60.9917C68.6239 60.9856 68.6087 60.9795 68.5662 60.9342C68.481 60.907 68.423 60.9189 68.365 60.9308C68.3267 60.9384 68.2884 60.9459 68.2083 60.9167C68.0862 60.8873 68.006 60.8947 67.9258 60.902C66.5958 60.9357 65.2657 60.9667 63.9358 61.0066C63.7611 61.0118 63.5877 61.0631 63.3768 61.0573C63.3399 60.9838 63.3398 60.9461 63.3397 60.9084C64.4173 60.633 65.4949 60.3577 66.6437 60.0935C66.8032 60.0869 66.8914 60.0691 66.9796 60.0512C66.9756 60.0194 66.9717 59.9876 66.9677 59.9558C66.8748 59.9433 66.782 59.9309 66.6891 59.9185C65.3615 59.4184 64.019 59.5627 62.6888 59.873C61.9084 60.055 61.1498 60.331 60.3226 60.5508C60.2411 60.4595 60.2185 60.3821 60.1958 60.3047C60.6116 60.0546 61.0274 59.8046 61.5029 59.5639C61.763 59.6879 61.8174 59.5884 61.8129 59.4026C63.1209 58.838 64.4482 58.3741 65.9704 58.6388C66.0121 58.6035 65.9944 58.5455 65.9767 58.4875C65.5606 58.2043 65.1445 57.9211 64.7098 57.5887C64.6994 57.478 64.7076 57.4165 64.7295 57.252C64.6089 57.3885 64.5575 57.4468 64.5061 57.505C63.9918 57.4321 63.4774 57.3593 62.9196 57.2569C62.6596 57.0472 62.5876 57.1963 62.5305 57.3793C61.5988 57.8354 60.6671 58.2915 59.6727 58.7529C59.5356 58.8182 59.4612 58.878 59.3869 58.9379C59.1469 59.1093 58.907 59.2807 58.6225 59.4017C58.5682 59.3108 58.5585 59.2702 58.5487 59.2297C58.6968 59.0694 58.8449 58.9091 59.0614 58.7393C59.168 58.6666 59.2063 58.6035 59.2445 58.5404C60.1052 57.6846 61.0484 56.9487 62.2478 56.5352C62.3763 56.5169 62.4539 56.4753 62.5315 56.4337C62.8674 56.3999 63.2033 56.3661 63.5985 56.3602C63.901 56.1039 63.673 56.0855 63.4691 56.0535C63.1652 55.7929 62.857 55.5369 62.5586 55.2701C62.335 55.0701 62.1097 54.9707 61.7935 55.0632C61.3809 55.1839 60.9532 55.2527 60.4835 55.3213C60.3848 55.3293 60.3345 55.3599 60.2842 55.3905ZM72.1895 30.8164C72.1775 30.8344 72.1655 30.8523 72.1535 30.8703C72.1805 30.8673 72.2074 30.8643 72.1895 30.8164Z" fill="#F6F6F5"/>
    <path d="M24.4828 79.2149C24.2816 77.4552 23.6384 75.8841 22.8715 74.3546C22.1421 72.9001 21.4102 71.4468 20.6245 69.8837C20.5988 70.0628 20.5826 70.1233 20.5826 70.1838C20.5815 72.9382 20.5917 75.6926 20.5755 78.4468C20.571 79.2046 20.8019 79.7874 21.5148 80.1671C20.1697 80.1671 18.8246 80.1671 17.4133 80.1671C17.5138 80.1025 17.5729 80.0609 17.6354 80.0249C18.1902 79.7056 18.5243 79.2737 18.5225 78.5876C18.5135 74.98 18.5191 71.3724 18.5315 67.7648C18.5345 66.8968 18.5841 66.0282 17.5517 65.6469C18.5293 65.6469 19.5078 65.6261 20.4836 65.6675C20.6443 65.6743 20.8379 65.9281 20.9407 66.1105C21.6304 67.3346 22.3092 68.5651 22.9725 69.8037C23.5479 70.8782 24.0982 71.9662 24.7311 73.036C24.7311 72.8397 24.7315 72.6434 24.731 72.4472C24.7269 70.6958 24.7058 68.9442 24.727 67.1932C24.735 66.5248 24.5464 66.0237 23.9052 65.7512C23.8818 65.7413 23.8656 65.7101 23.851 65.6859C23.8454 65.6768 23.8536 65.6594 23.8596 65.6161C25.0785 65.6161 26.3016 65.6161 27.5246 65.6161C26.743 66.0622 26.7393 66.7863 26.7417 67.5391C26.7552 71.7304 26.7612 75.9217 26.7435 80.1129C26.7419 80.4828 26.6452 80.9223 26.4308 81.2079C25.824 82.0163 25.14 82.7676 24.469 83.526C24.3421 83.6693 24.1352 83.7417 23.8557 83.9146C24.7661 82.3678 24.6518 80.8137 24.4828 79.2149Z" fill="#F7F6F6"/>
    <path d="M68.5409 13.3252C68.4465 12.1581 67.9217 11.2437 67.1249 10.4636C67.1485 10.4324 67.1722 10.4012 67.1958 10.3701C67.3825 10.4996 67.5893 10.6077 67.7526 10.762C69.1668 12.0978 69.528 13.7518 69.0446 15.5707C68.6328 17.1199 67.7336 18.3878 66.3881 19.29C65.143 20.1249 63.7946 20.3106 62.3674 19.8044C61.2422 19.4053 60.1413 18.9193 58.9304 18.8219C57.2164 18.6841 55.6149 18.934 54.3066 20.1802C53.6337 20.8211 53.2719 21.6254 53.0971 22.5558C52.6168 21.6545 53.1084 20.1765 54.3938 18.6733C54.1794 18.7093 54.0298 18.715 53.8933 18.7601C51.9375 19.4063 50.9528 20.7988 50.7639 22.8159C50.7138 23.3507 50.6206 23.8832 50.5187 24.4113C50.178 26.1765 49.1417 27.3821 47.5303 28.1425C46.7753 28.4988 46.0506 28.919 45.3097 29.3056C45.202 29.3618 45.0808 29.392 44.9659 29.4342C44.9373 29.3908 44.9087 29.3475 44.8801 29.3042C45.318 28.9452 45.7385 28.5618 46.1979 28.2328C46.9266 27.711 47.7029 27.254 48.4159 26.7126C48.7649 26.4476 49.0165 26.0544 49.2552 25.6627C48.1146 26.6487 46.7443 27.1718 45.4468 27.8268C45.4237 27.7907 45.4006 27.7546 45.3776 27.7185C45.7584 27.3979 46.1392 27.0774 46.6115 26.6798C46.3693 26.704 46.2165 26.6955 46.0784 26.7366C43.2693 27.574 41.5103 30.0171 41.6671 32.9583C41.7111 33.7847 41.9451 34.6009 42.0889 35.4222C42.118 35.5882 42.1335 35.7566 42.1222 35.9269C40.7172 33.5614 41.2222 31.2632 42.4119 29.0258C43.2576 27.4353 44.5861 26.3929 46.3233 25.8729C46.7944 25.7318 47.2557 25.5448 47.7023 25.3374C48.9973 24.7361 49.7449 23.6795 50.1483 22.3408C50.4195 21.4406 50.6507 20.5248 51.2597 19.7645C52.2769 18.4947 53.6875 18.0284 55.2137 17.7893C57.0716 17.4982 58.9328 17.4155 60.8068 17.6516C61.3525 17.7204 61.9154 17.7178 62.4653 17.678C64.7322 17.5139 66.3068 15.5356 65.9954 13.2749C66.8272 14.5136 66.2683 16.4134 64.9626 17.2924C66.22 17.8484 68.5257 15.3188 68.5409 13.3252ZM66.9442 18.1892C67.0509 18.0233 67.1577 17.8573 67.2644 17.6914C65.3535 18.8944 63.3267 19.2741 61.1166 18.8565C61.8735 19.2438 62.6192 19.6717 63.4175 19.8234C64.8964 20.1044 65.9923 19.3274 66.9442 18.1892ZM67.2866 17.5688C67.2662 17.5618 67.2457 17.5549 67.2253 17.548C67.232 17.5684 67.2387 17.5888 67.2866 17.5688Z" fill="#F1F1F1"/>
    <path d="M61.4034 71.7574C61.4003 72.2273 61.4003 72.6566 61.4003 73.1846C60.7436 72.4739 60.0729 72.0232 59.1257 72.1804C59.1257 73.568 59.1257 74.9653 59.1257 76.3543C60.9568 76.494 62.7244 76.4601 63.8609 74.619C63.8973 74.651 63.9337 74.6831 63.9702 74.7151C63.8851 75.1201 63.7904 75.5233 63.7176 75.9304C63.6413 76.3568 63.5613 76.785 63.5288 77.2159C63.4967 77.642 63.5218 78.0725 63.5218 78.5823C63.1723 78.3283 62.9283 78.0517 62.6262 77.953C62.0804 77.7749 61.5028 77.6234 60.9333 77.6022C59.4081 77.5456 57.88 77.5643 56.3532 77.5515C56.2096 77.5503 56.0661 77.5383 55.8448 77.5275C56.0654 77.3419 56.248 77.2223 56.3873 77.0645C56.7292 76.6777 56.9656 76.2615 56.9433 75.6981C56.9048 74.7265 56.9081 73.7509 56.9513 72.7796C56.9709 72.3393 56.8003 72.105 56.4322 71.9529C56.1446 71.8341 55.8554 71.7193 55.5448 71.5938C55.9115 71.3863 56.286 71.2192 56.6026 70.9765C56.7645 70.8524 56.9077 70.5952 56.9134 70.3941C56.9432 69.3319 56.9386 68.2683 56.9212 67.2056C56.9119 66.6351 56.5216 66.2621 56.1434 65.8974C56.0631 65.82 55.9621 65.7639 55.8076 65.6525C58.1085 65.5114 60.3609 65.9522 62.6307 65.2644C62.7117 66.2506 62.7907 67.2134 62.8697 68.1761C61.8951 66.8092 60.4847 66.9843 59.1191 67.0187C59.1191 68.3614 59.1191 69.6869 59.1191 71.0066C60.0937 71.1673 60.8685 70.7714 61.625 70.2247C61.5475 70.7538 61.477 71.2353 61.4034 71.7574Z" fill="#F7F6F6"/>
    <path d="M42.1668 77.5235C41.1132 77.5233 40.0981 77.5233 38.9719 77.5233C39.1287 77.4105 39.2006 77.357 39.2742 77.3059C39.6663 77.0341 39.9022 76.6922 39.8864 76.1831C39.8608 75.3603 39.8465 74.5355 39.8759 73.7133C39.891 73.2895 39.7426 73.0805 39.3372 73.0064C39.1642 72.9747 39.001 72.8901 38.8174 72.8238C38.8663 72.7798 38.9031 72.7214 38.9535 72.7049C39.7535 72.4442 40.0036 71.8881 39.8846 71.0849C39.8303 70.7184 39.8575 70.3369 39.8753 69.9635C39.9045 69.3523 39.7107 68.8785 38.985 68.575C40.2078 68.575 41.2923 68.575 42.5258 68.575C41.7833 68.8995 41.7321 69.4432 41.7494 70.0335C41.7686 70.6901 41.7538 71.3477 41.7538 72.0337C42.5413 72.0337 43.2959 72.0337 44.0916 72.0337C44.0916 71.1725 44.1419 70.3053 44.0652 69.4496C44.0371 69.1362 43.7076 68.8498 43.5165 68.5525C44.5061 68.5525 45.5771 68.5525 46.6481 68.5525C45.8651 68.9272 45.995 69.6426 45.9935 70.306C45.9894 72.1177 46.0025 73.9295 45.9793 75.7409C45.9704 76.437 45.9706 77.0959 46.6926 77.4922C45.5741 77.4922 44.4556 77.4922 43.3371 77.4922C44.118 77.1139 44.1393 76.4441 44.1133 75.7266C44.0846 74.9358 44.1067 74.1431 44.1067 73.313C43.3383 73.313 42.5835 73.313 41.758 73.313C41.758 73.5591 41.7584 73.8355 41.7579 74.1119C41.7567 74.7258 41.7736 75.3404 41.7485 75.9533C41.7226 76.5843 41.7964 77.1493 42.4477 77.5003C42.3669 77.5081 42.2861 77.5159 42.1668 77.5235Z" fill="#F7F6F6"/>
    <path d="M75.0012 80.2388C73.3196 80.2376 71.6809 80.2376 70.0422 80.2376C70.0364 80.206 70.0306 80.1745 70.0248 80.1429C70.1582 80.0394 70.3042 79.9486 70.4227 79.8302C70.8371 79.4162 71.095 78.9536 71.0821 78.3243C71.0506 76.7833 71.0481 75.2406 71.0886 73.6999C71.1015 73.2075 70.9113 72.9922 70.4856 72.8835C70.3567 72.8506 70.232 72.8011 70.0965 72.7562C70.1277 72.7207 70.1414 72.6898 70.1627 72.6831C70.8862 72.4561 71.2375 72.0079 71.0814 71.2185C71.0358 70.988 71.0681 70.7408 71.0746 70.5015C71.1012 69.5215 71.0966 69.3067 70.0042 68.5901C71.3547 68.5901 72.6289 68.5901 74.0496 68.5901C73.0004 69.1255 73.1575 70.0184 73.1522 70.8573C73.151 71.0519 73.1795 71.2508 73.1489 71.4403C73.0408 72.1077 73.2972 72.5331 73.9758 72.6945C73.9347 72.7381 73.9222 72.7625 73.903 72.7702C73.1598 73.0684 73.159 73.0682 73.1587 73.8697C73.1582 75.5429 73.1585 77.216 73.1585 78.9036C75.1409 79.035 77.0195 78.9785 78.1394 77.0002C77.991 78.5108 77.8472 79.9734 77.7066 81.4041C77.0717 80.5965 76.1399 80.2311 75.0012 80.2388Z" fill="#F7F7F7"/>
    <path d="M33.2314 73.4802C33.5074 74.8177 34.1121 75.8647 35.4138 76.379C35.524 76.4226 35.6416 76.4517 35.7585 76.4725C35.8738 76.493 35.9924 76.4943 36.1397 76.5066C36.1397 75.3827 36.1397 74.2822 36.1397 73.1493C35.7873 73.1493 35.4341 73.1493 35.11 73.1493C35.1594 72.6537 35.2059 72.1872 35.2567 71.6778C36.2743 71.6778 37.339 71.6778 38.4971 71.6778C37.9368 71.9897 38.0177 72.4815 38.0167 72.9439C38.0134 74.4651 38.0155 75.9863 38.0155 77.4842C37.0392 77.4842 35.9593 77.6224 34.9287 77.4557C32.6985 77.0952 31.2566 75.2204 31.2637 72.9198C31.2709 70.5803 32.7146 68.8 35.0006 68.3899C35.7293 68.2592 36.4829 68.2677 37.271 68.2091C37.271 68.843 37.271 69.3879 37.271 69.9766C36.6149 69.2841 35.8395 69.3275 35.0545 69.649C34.1291 70.0281 33.5689 70.7653 33.352 71.7127C33.2245 72.2696 33.2632 72.8645 33.2314 73.4802Z" fill="#F7F7F7"/>
    <path d="M40.5538 26.4223C41.4131 25.8852 42.2577 25.3224 43.1354 24.8172C44.3345 24.1269 45.4326 23.3393 46.0262 22.038C46.2448 21.5588 46.3742 21.0388 46.5443 20.5374C46.4906 20.513 46.4368 20.4885 46.3831 20.464C46.1349 20.8187 45.8868 21.1733 45.6302 21.5401C45.6698 19.7007 46.1112 18.313 47.0441 17.3129C48.492 15.7605 50.326 15.2908 52.3658 15.5863C53.2342 15.7121 54.0723 16.0357 54.9377 16.1977C55.5446 16.3113 56.1955 16.427 56.7898 16.3255C58.3107 16.0656 59.1065 14.6364 58.6032 13.1731C58.4361 12.6871 58.1539 12.2407 57.9263 11.7801C57.9583 11.7848 58.0559 11.7714 58.118 11.8121C59.0638 12.4313 59.6562 14.1098 59.3108 15.1718C58.9601 16.2506 57.9979 16.9932 56.7318 16.9526C55.77 16.9218 54.8154 16.6777 53.8569 16.5332C53.5061 16.4803 53.1533 16.4407 52.7832 16.3927C52.798 16.5335 52.8061 16.6098 52.8069 16.6179C52.0492 16.6785 51.3012 16.6761 50.5779 16.8085C48.7656 17.1405 47.5844 18.2307 47.1911 20.0289C46.733 22.1232 45.6538 23.7067 43.8069 24.8169C42.8644 25.3834 41.9131 25.9985 41.1358 26.7642C39.1114 28.7579 38.6417 31.2059 39.3574 33.915C39.4108 34.117 39.4885 34.3126 39.5416 34.5147C39.5816 34.6672 39.6002 34.8253 39.6511 35.1064C39.5274 34.9506 39.4707 34.8882 39.424 34.8191C38.1141 32.8791 38.023 30.7805 38.5776 28.5806C39.01 26.8652 39.9481 25.5222 41.371 24.4836C42.1854 23.8892 42.9584 23.2382 43.7967 22.5757C43.6887 22.7529 43.6228 22.9189 43.5086 23.0388C42.8387 23.7409 42.1514 24.4265 41.4827 25.1297C41.144 25.486 40.8319 25.8675 40.4727 26.2824C40.4763 26.3589 40.515 26.3906 40.5538 26.4223ZM40.322 26.5829C40.3559 26.5546 40.3899 26.5263 40.4238 26.498C40.3762 26.5073 40.3286 26.5166 40.322 26.5829Z" fill="#F0F1F0"/>
    <path d="M64.2435 32.6947C64.5338 32.2399 64.7142 31.7854 64.7287 31.191C63.6551 32.8442 61.8673 33.1513 59.8156 32.7417C61.6201 32.4714 63.2214 31.9199 63.7099 29.9405C64.0653 28.5003 63.6373 27.2611 62.4208 26.3136C62.4673 26.265 62.4989 26.2149 62.5442 26.187C63.4461 25.6318 65.2524 25.9156 65.935 26.7175C66.9747 27.939 68.5607 30.5297 68.8951 31.5579C67.6845 32.127 66.4724 32.6969 65.2383 33.2772C65.2383 32.9264 65.2383 32.5512 65.2383 32.176C64.7867 33.085 64.0839 33.6437 63.0969 33.9149C63.4963 33.493 63.861 33.1078 64.2435 32.6947Z" fill="#F7F6F6"/>
    <path d="M39.0393 44.7116C38.7747 44.4523 38.5305 44.1675 38.2419 43.9387C37.4252 43.2912 36.5904 42.6667 35.7627 42.0332C35.7211 42.0533 35.6795 42.0735 35.6379 42.0937C36.1548 43.656 36.6716 45.2184 37.1924 46.7927C37.0278 46.7638 36.8983 46.741 36.8813 46.738C36.8038 47.0002 36.7285 47.2125 36.6832 47.4309C36.6669 47.5093 36.7248 47.6022 36.7455 47.6893C37.0747 49.0744 38.0207 50.0633 38.9162 51.0874C39.0852 51.2807 39.2749 51.4974 39.3369 51.7342C39.4711 52.2466 39.7888 52.5075 40.2817 52.5466C41.2059 52.62 42.1326 52.6615 43.0582 52.7161C43.1606 52.7221 43.2631 52.7271 43.418 52.7354C42.7584 53.0365 40.292 52.9137 38.78 52.5329C38.7497 52.5626 38.7193 52.5924 38.689 52.6221C38.8501 52.7525 38.994 52.9175 39.1751 53.0076C40.1623 53.4992 41.1991 53.8152 42.3141 53.8239C42.432 53.8249 42.5498 53.8362 42.7376 53.8466C42.0538 54.1308 41.396 54.2036 40.7628 54.0262C40.1535 53.8555 39.5824 53.5485 38.9558 53.2851C39.0988 53.6739 39.2371 54.0754 39.394 54.4695C39.5483 54.8571 39.7214 55.2372 39.8996 55.6516C40.0515 55.6088 40.1874 55.5706 40.3946 55.5123C40.3051 55.8158 40.2222 56.0779 40.1506 56.343C39.9089 57.2382 40.2713 57.8161 41.1915 57.9457C42.4898 58.1286 43.7142 57.7906 44.9177 57.3545C45.2545 57.2325 45.5822 57.0855 45.9641 57.0397C45.9251 57.0901 45.8967 57.1592 45.8456 57.188C44.5329 57.9289 43.1697 58.5309 41.6336 58.5912C40.156 58.6491 39.4173 58.0172 39.0679 56.5841C38.8177 55.5573 38.4969 54.5417 38.1267 53.5514C37.4472 51.7335 36.711 49.9368 35.9923 48.1337C35.7074 47.4192 35.84 46.6924 35.8834 45.9624C35.9266 45.2379 36.0328 44.4914 35.9095 43.79C35.7853 43.0835 35.4862 42.3782 35.1239 41.7535C34.8749 41.324 34.3995 41.0183 34.0027 40.6842C33.6405 40.3792 33.2478 40.1104 32.8746 39.7977C33.7666 40.0056 34.5543 40.4902 35.4192 40.8504C35.5469 40.4392 35.6784 40.0158 35.8099 39.5923C35.8591 39.6018 35.9082 39.6113 35.9574 39.6209C35.9376 39.9516 35.95 40.2884 35.8895 40.6115C35.8194 40.9855 35.9811 41.1895 36.2662 41.3847C36.7466 41.7136 37.2328 42.0427 37.6679 42.4268C38.3463 43.0257 38.9022 43.7226 39.0637 44.6741C39.0418 44.7015 39.0393 44.7116 39.0393 44.7116ZM38.6447 52.3535C38.5928 52.349 38.541 52.3445 38.4891 52.3401C38.528 52.3651 38.5669 52.3902 38.6447 52.3535ZM38.7226 52.5137C38.7047 52.5017 38.6867 52.4897 38.6687 52.4777C38.6717 52.5047 38.6747 52.5316 38.7226 52.5137Z" fill="#F0F0F0"/>
    <path d="M53.7126 68.658C53.7507 69.2895 53.786 69.8797 53.8213 70.4699C53.136 69.5774 52.2038 69.5658 51.2145 69.6291C51.2084 69.7376 51.1963 69.8504 51.1966 69.9631C51.2021 71.8482 51.2133 73.7333 51.2144 75.6184C51.215 76.7538 51.2082 76.7538 52.0221 77.5071C50.8223 77.5071 49.6571 77.5071 48.3961 77.5071C48.543 77.4059 48.6219 77.3581 48.6934 77.3012C49.0651 77.0052 49.3551 76.6842 49.351 76.1493C49.3344 73.995 49.3441 71.8406 49.3441 69.6517C48.3337 69.4967 47.4358 69.6663 46.7015 70.533C46.7443 69.8632 46.787 69.1934 46.8315 68.4955C47.0271 68.4866 47.1882 68.4738 47.3494 68.473C49.3242 68.4634 51.299 68.452 53.2738 68.4548C53.4193 68.455 53.5646 68.5603 53.7126 68.658Z" fill="#F4F4F4"/>
    <path d="M65.8545 68.5629C66.3016 68.5624 66.704 68.5624 67.2496 68.5624C66.4076 68.9558 66.464 69.6184 66.4668 70.2751C66.4754 72.3217 66.4699 74.3684 66.4699 76.4311C67.9495 76.5 69.4136 76.6477 70.3773 75.1683C70.2562 76.0886 70.1351 77.009 70.0152 77.9199C68.2315 77.1901 66.3192 77.6697 64.4534 77.5222C64.2669 77.5074 64.0782 77.5202 63.8369 77.4697C64.6991 76.9488 64.6109 76.1434 64.6046 75.3465C64.5905 73.5514 64.5934 71.756 64.6112 69.961C64.6172 69.3505 64.4524 68.8759 63.8441 68.5634C64.4993 68.5634 65.1546 68.5634 65.8545 68.5629Z" fill="#F6F5F5"/>
    <path d="M30.4071 75.1989C30.4068 75.4232 30.4184 75.6036 30.404 75.7819C30.3469 76.4927 30.5335 77.0827 31.2011 77.4857C30.0359 77.4857 28.8706 77.4857 27.6584 77.4857C27.7464 77.4133 27.8119 77.3489 27.8872 77.2991C28.2874 77.0341 28.5158 76.6835 28.5143 76.1844C28.508 74.0463 28.5071 71.9082 28.514 69.7702C28.5158 69.1979 28.2078 68.8614 27.7299 68.5856C28.8578 68.5856 29.9857 68.5856 31.216 68.5856C30.5017 68.9083 30.3978 69.4591 30.4027 70.0856C30.4158 71.775 30.4071 73.4646 30.4071 75.1989Z" fill="#F6F5F5"/>
    <path d="M28.5082 56.433C28.7246 56.2947 29.1262 56.3362 29.0194 55.8363C30.9144 56.2824 32.6856 57.0661 34.3437 58.087C36.6424 59.5024 38.5564 61.3158 39.8881 63.6949C39.9771 63.8539 40.0384 64.0285 40.0559 64.2355C38.9124 62.935 37.7575 61.6648 36.3223 60.6079C36.1732 60.5023 36.0567 60.4399 35.9388 60.3763C35.9375 60.375 35.9349 60.3725 35.9337 60.3413C35.8415 60.243 35.7503 60.176 35.6592 60.1089C35.1781 59.7761 34.6971 59.4434 34.1126 59.039C33.939 59.5813 33.7937 60.0356 33.6239 60.5662C32.962 59.986 32.2578 59.4056 31.5977 58.7788C31.0577 58.2661 30.5891 57.678 30.0499 57.1642C29.8355 56.9599 29.5213 56.8544 29.2428 56.7249C29.0137 56.6183 28.7701 56.5427 28.5082 56.433Z" fill="#F6F5F6"/>
    <path d="M51.1751 37.3562C51.6486 37.3862 52.0815 37.4325 52.5145 37.4336C52.9349 37.4346 53.3555 37.3893 53.7787 37.4118C52.4511 37.9488 51.0955 38.1298 49.6728 37.8879C48.8656 37.7507 48.0381 37.6751 47.2199 37.6766C46.2111 37.6786 45.2986 38.0284 44.5503 38.7507C45.1778 37.3549 46.2749 36.5313 47.6999 36.1071C48.0436 36.0048 48.3938 35.9132 48.7474 35.8575C49.8725 35.6804 50.9081 35.2753 51.878 34.6873C51.9685 34.6325 52.0749 34.6041 52.2266 34.646C52.137 34.7407 52.0475 34.8355 51.9579 34.9303C51.9725 34.9692 51.9872 35.0082 52.0018 35.0472C52.8378 34.7359 53.6738 34.4247 54.6244 34.0708C54.513 34.2421 54.4871 34.3129 54.437 34.3543C53.0975 35.4588 51.6466 36.3021 49.8517 36.4054C49.2576 36.4395 48.669 36.5709 48.079 36.6654C48.0185 36.6751 47.9663 36.7364 47.937 36.7559C49.0016 36.9546 50.0681 37.1536 51.1751 37.3562Z" fill="#F1F1F1"/>
    <path d="M52.1641 80.3615C52.7625 81.3711 52.692 82.3156 51.9769 83.1652C51.4141 83.834 50.3954 84.0731 49.5203 83.7418C48.631 83.4052 48.0756 82.5684 48.1079 81.614C48.1408 80.6429 48.7599 79.8003 49.6505 79.5148C50.6249 79.2024 51.4869 79.4861 52.1641 80.3615ZM51.3326 80.8943C50.8821 80.2726 50.2274 80.1283 49.6661 80.5268C49.1131 80.9194 48.9743 81.8205 49.3734 82.4263C49.7368 82.9779 50.4253 83.1203 50.9856 82.7597C51.525 82.4125 51.6722 81.7185 51.3326 80.8943Z" fill="#F4F4F4"/>
    <path d="M44.5709 43.399C43.5945 43.8718 42.6474 44.3295 41.7003 44.7872C42.2401 43.4967 43.0928 42.5292 44.2459 41.8354C45.8314 40.8815 47.5556 40.2414 49.2911 39.6296C49.7981 39.4509 50.3126 39.2928 50.8256 39.1316C50.9406 39.0954 51.064 39.0859 51.2124 39.1552C50.6568 39.4555 50.0751 39.7163 49.5507 40.0636C48.1306 41.0041 46.7361 41.9833 45.3281 42.9423C45.0939 43.1018 44.8433 43.2373 44.5709 43.399Z" fill="#F3F3F3"/>
    <path d="M46.4849 81.04C46.4924 81.7279 46.4798 82.3723 46.5167 83.0137C46.5324 83.2854 46.6524 83.5511 46.728 83.831C46.2747 83.831 45.7345 83.831 45.1378 83.831C45.8709 83.2259 45.3859 82.4709 45.5682 81.7847C45.03 81.7847 44.5578 81.7847 44.0225 81.7847C44.1396 82.4561 43.7683 83.1712 44.2694 83.8314C43.753 83.8314 43.2287 83.8314 42.7917 83.8314C42.8723 83.5556 43.0158 83.2765 43.0251 82.9931C43.0559 82.0516 43.0509 81.1083 43.0295 80.1664C43.0248 79.9596 42.8957 79.7557 42.8193 79.5372C43.2532 79.5372 43.7668 79.5372 44.3278 79.5372C43.8037 79.9865 44.0839 80.5347 44.0279 81.0653C44.5436 81.0653 45.0147 81.0653 45.5374 81.0653C45.4874 80.5336 45.7518 79.9845 45.2148 79.5283C45.7639 79.5283 46.2761 79.5283 46.8355 79.5283C46.3106 79.9329 46.5414 80.4937 46.4849 81.04Z" fill="#F6F5F5"/>
    <path d="M50.2321 44.5461C50.1862 45.4105 50.0755 46.2467 50.4428 47.0239C50.5034 46.3061 50.5651 45.5748 50.6371 44.7218C50.7542 45.5184 50.7902 46.1951 50.9652 46.8337C51.1443 47.4871 51.3974 48.1388 51.733 48.7255C52.0705 49.3155 52.5099 49.8619 52.9778 50.3585C53.4426 50.852 53.9985 51.2597 54.5145 51.705C54.5001 51.7402 54.4857 51.7755 54.4713 51.8107C53.9528 51.5669 53.4059 51.3683 52.9237 51.0665C52.4341 50.7599 51.9679 50.3907 51.566 49.9765C51.1617 49.5596 50.8492 49.0537 50.4965 48.5868C50.4529 48.6108 50.4093 48.6347 50.3657 48.6587C50.7541 49.4973 51.1425 50.3359 51.5684 51.2555C51.4163 51.1729 51.2687 51.1247 51.1623 51.0302C49.6036 49.6463 49.2506 47.884 49.6185 45.925C49.7403 45.2764 49.9719 44.6485 50.1533 44.0111C50.2007 44.0197 50.2481 44.0283 50.2955 44.0368C50.2726 44.1954 50.2496 44.3539 50.2321 44.5461Z" fill="#F0F0F0"/>
    <path d="M69.9543 21.0783C69.5384 21.2388 69.1225 21.3993 68.7066 21.5597C70.4022 20.323 71.3135 18.7919 70.803 16.6211C71.1718 17.1343 71.3733 17.7271 71.3877 18.3524C71.4023 18.9811 71.3102 19.6122 71.2569 20.3529C71.4451 19.9841 71.5939 19.6924 71.7368 19.4124C71.8436 20.4366 71.0996 21.7858 70.1468 22.3977C68.9159 23.1883 66.798 22.9443 65.4767 21.8052C65.7209 21.8414 65.8876 21.8569 66.0501 21.8917C67.045 22.1046 68.0441 22.1776 69.017 21.8274C69.3862 21.6946 69.7087 21.4321 70.0846 21.1907C70.1407 21.1168 70.1647 21.0808 70.2148 21.0328C70.2718 20.9739 70.3027 20.9272 70.3336 20.8804C70.3169 20.8658 70.3002 20.8513 70.2835 20.8367C70.2216 20.8802 70.1597 20.9236 70.0759 20.9758C70.0208 21.0159 69.9876 21.0471 69.9543 21.0783ZM71.214 20.3808C71.2036 20.3452 71.1933 20.3097 71.1829 20.2741C71.1697 20.3107 71.1564 20.3472 71.214 20.3808Z" fill="#EDEDED"/>
    <path d="M38.448 83.6116C38.367 83.4628 38.2861 83.3319 38.2807 83.198C38.2718 82.9778 38.3118 82.7556 38.3264 82.5888C38.6749 82.7467 39.0142 82.9276 39.3733 83.0506C39.5282 83.1036 39.744 83.0806 39.8956 83.0117C40.0387 82.9467 40.2117 82.7851 40.2274 82.6493C40.2423 82.5206 40.1023 82.3143 39.9739 82.2408C39.6918 82.0791 39.3745 81.9787 39.0709 81.8551C38.5807 81.6555 38.2875 81.3047 38.2896 80.7644C38.2918 80.2229 38.5452 79.8219 39.0459 79.5942C39.5308 79.3736 40.022 79.3405 40.5262 79.54C40.6534 79.5903 40.7984 79.5959 40.9808 79.6308C40.9808 79.9197 40.9808 80.2711 40.9808 80.5405C40.5897 80.4373 40.187 80.2897 39.7729 80.2428C39.6168 80.2252 39.4344 80.4406 39.2639 80.5497C39.3732 80.7076 39.4509 80.913 39.5994 81.0118C39.8057 81.1489 40.0646 81.2077 40.302 81.2973C41.0133 81.5655 41.283 81.9165 41.2526 82.5374C41.2227 83.1476 40.8088 83.634 40.1742 83.8197C39.5815 83.9931 39.0219 83.9062 38.448 83.6116Z" fill="#F3F3F3"/>
    <path d="M55.5821 82.2768C55.3945 82.2798 55.2476 82.2798 55.045 82.2798C55.1072 82.818 54.8339 83.382 55.4153 83.8219C54.8312 83.8219 54.2911 83.8219 53.8594 83.8219C53.9393 83.4977 54.0683 83.1829 54.0856 82.8621C54.1249 82.1322 54.1064 81.3993 54.1172 80.6677C54.1233 80.2542 54.1699 79.8316 53.7562 79.4874C54.4195 79.4874 55.0832 79.474 55.7461 79.4909C56.5122 79.5105 57.0309 79.9917 57.1019 80.7144C57.1704 81.412 56.7268 82.0269 56.0201 82.2061C55.8903 82.239 55.7554 82.2517 55.5821 82.2768ZM55.0261 81.2442C55.0377 81.367 55.0493 81.4898 55.0606 81.6096C55.8275 81.5708 56.1633 81.2996 56.1112 80.804C56.0666 80.3785 55.6889 80.1869 55.0266 80.2813C55.0266 80.5702 55.0266 80.8656 55.0261 81.2442Z" fill="#F1F1F1"/>
    <path d="M53.0953 27.9411C52.9283 29.5816 52.3853 30.9998 51.1456 32.0933C50.4955 32.6668 49.7058 32.9299 48.8945 33.1531C47.8903 33.4294 46.9435 33.8198 46.1496 34.5194C46.0693 34.5901 45.9705 34.6397 45.8613 34.6721C46.5079 33.591 47.3936 32.7888 48.5303 32.2535C49.5428 31.7767 50.5927 31.359 51.3777 30.5027C52.1415 29.6695 52.6962 28.7314 52.9268 27.6153C52.9461 27.5221 52.9838 27.4328 53.097 27.3508C53.097 27.534 53.097 27.7173 53.0953 27.9411Z" fill="#F0F0F0"/>
    <path d="M46.3426 43.6556C46.9676 43.7425 47.5505 43.8264 48.1301 43.9098C47.0243 45.755 45.7563 46.3559 43.2279 45.7502C43.9087 44.1571 44.7012 43.6161 46.3426 43.6556Z" fill="#F6F5F5"/>
    <path d="M23.358 22.1229C24.3609 21.6361 24.4357 20.6917 24.6014 19.7974C24.6285 19.6513 24.6263 19.4998 24.6748 19.3242C24.8762 20.8886 25.186 22.3588 27.257 22.4232C25.1948 22.5582 24.8739 24.0316 24.6984 25.6356C24.4517 24.1298 24.3325 22.577 22.3253 22.4366C22.6594 22.3371 22.9935 22.2377 23.358 22.1229Z" fill="#F3F3F3"/>
    <path d="M36.3635 38.2966C36.552 38.5165 36.7197 38.7115 36.8874 38.9064C36.8557 38.9393 36.8241 38.9721 36.7924 39.005C35.8548 38.5463 35.077 37.8793 34.4269 37.0456C34.3833 37.0718 34.3398 37.098 34.2962 37.1242C34.5763 37.7702 34.8565 38.4162 35.1604 39.117C33.8242 38.1793 32.9761 34.4565 34.1647 32.7309C34.1647 33.4546 34.1647 34.1783 34.1647 34.902C34.2089 34.9046 34.2531 34.9072 34.2973 34.9098C34.3401 34.6237 34.3829 34.3376 34.4257 34.0514C34.4651 34.0462 34.5046 34.0409 34.5441 34.0356C34.8547 35.5753 35.2689 37.0692 36.3635 38.2966ZM34.4161 36.9924C34.3661 36.9882 34.3161 36.984 34.2661 36.9797C34.3044 37.0054 34.3426 37.0311 34.4161 36.9924Z" fill="#EEEFEF"/>
    <path d="M52.8525 48.7103C53.0325 48.8799 53.2125 49.0496 53.4278 49.2532C53.525 49.3257 53.587 49.3643 53.6489 49.4028C53.6649 49.3689 53.6808 49.3349 53.6967 49.3009C53.6144 49.2773 53.532 49.2538 53.4497 49.2302C53.4162 49.0742 53.3973 48.9133 53.3468 48.763C53.1253 48.1032 52.8901 47.4479 52.673 46.7867C52.6456 46.7032 52.6962 46.5942 52.7174 46.4514C53.7093 48.3212 54.8071 49.9926 56.7131 50.935C57.4759 51.3121 58.298 51.426 59.1815 51.3211C57.4149 52.3639 54.1943 51.23 52.833 49.0464C52.8377 48.8849 52.8451 48.7976 52.8525 48.7103Z" fill="#F0F1F0"/>
    <path d="M59.2297 29.4037C59.5665 28.7732 59.8743 28.1244 60.2527 27.5199C60.4358 27.2274 60.7225 26.974 61.0137 26.7801C61.5994 26.3901 62.1354 26.6554 62.2581 27.3582C62.3471 27.8683 62.177 28.3089 61.8452 28.6808C61.3466 29.2396 60.6905 29.4507 59.9596 29.46C59.92 29.4605 59.8796 29.3975 59.8721 29.3258C60.1098 29.0941 60.1588 28.8834 59.9473 28.5783C59.8685 28.8205 59.8071 29.0095 59.7456 29.1984C59.7456 29.1984 59.746 29.1992 59.7143 29.2039C59.6583 29.2772 59.634 29.3459 59.6097 29.4146C59.6097 29.4146 59.595 29.4052 59.5539 29.401C59.4185 29.3991 59.3241 29.4014 59.2297 29.4037ZM60.1478 28.5157C60.1528 28.4957 60.1579 28.4756 60.1629 28.4555C60.1504 28.4684 60.1379 28.4813 60.1478 28.5157Z" fill="#F7F6F6"/>
    <path d="M39.3799 50.8227C39.0332 50.4919 38.7016 50.1903 38.3964 49.864C38.3254 49.7881 38.2946 49.6116 38.3291 49.5098C38.8045 48.1106 39.2945 46.7163 39.7813 45.3209C39.7905 45.2947 39.8049 45.2703 39.8469 45.1818C39.8956 45.4178 39.9495 45.6008 39.9673 45.7872C39.9857 45.9799 39.9795 46.1767 39.9646 46.3702C39.9492 46.57 39.9105 46.7679 39.882 46.9667C39.9163 46.9842 39.9505 47.0017 39.9848 47.0192C40.0854 46.896 40.186 46.7727 40.2866 46.6495C40.3129 46.6573 40.3391 46.665 40.3653 46.6728C40.1637 47.3307 40.0228 48.0157 39.7449 48.6396C39.4057 49.4012 39.3923 50.0754 39.8991 50.7553C40.0275 50.9275 40.0808 51.1557 40.2184 51.473C39.8813 51.2119 39.643 51.0274 39.3799 50.8227Z" fill="#EEEFEF"/>
    <path d="M60.645 81.3212C63.3575 81.3945 66.0252 81.4679 68.6929 81.5412C68.6927 81.5922 68.6925 81.6431 68.6923 81.6941C65.5403 81.7658 62.3884 81.8376 59.2039 81.9101C59.2039 81.6876 59.2039 81.5354 59.2039 81.3213C59.684 81.3213 60.1421 81.3213 60.645 81.3212Z" fill="#EBEBEB"/>
    <path d="M37.6544 43.9031C38.2878 44.2777 38.9292 45.0685 39.0801 45.6328C37.7478 46.1841 36.934 45.6065 36.4856 43.6998C36.8914 43.7681 37.2566 43.8295 37.6544 43.9031Z" fill="#F3F3F3"/>
    <path d="M33.0647 81.8404C31.6662 81.7762 30.3121 81.7133 28.958 81.6505C28.9588 81.6171 28.9597 81.5837 28.9605 81.5504C31.3914 81.4589 33.8223 81.3675 36.2888 81.2747C36.3118 81.4891 36.3271 81.6311 36.3498 81.8419C35.2457 81.8419 34.1775 81.8419 33.0647 81.8404Z" fill="#EDEDED"/>
    <path d="M35.7567 35.6681C35.697 35.5388 35.6373 35.4095 35.5984 35.2349C35.5826 35.1388 35.546 35.0878 35.5094 35.0369C35.1675 33.7507 35.3001 32.5003 35.8079 31.2657C35.7215 33.057 36.2896 34.6784 37.0276 36.2576C36.7064 36.2744 36.4951 35.999 35.9565 34.805C35.9073 34.63 35.8595 34.5132 35.8026 34.3742C35.5882 34.6714 35.7153 34.7753 35.9837 34.8098C35.9292 34.8764 35.8319 34.9406 35.8282 35.0099C35.8181 35.2004 35.8472 35.3931 35.8371 35.6242C35.7945 35.6651 35.7756 35.6666 35.7567 35.6681Z" fill="#EDEDED"/>
    <path d="M37.8867 33.4282C38.2704 34.5184 38.6452 35.5714 38.9866 36.5306C38.1416 35.7781 37.6148 34.7102 37.3858 33.5003C37.1531 32.2707 37.2238 31.0438 37.5528 29.8602C37.6604 31.0286 37.7692 32.2099 37.8867 33.4282Z" fill="#EBEBEB"/>
    <path d="M61.5975 22.6518C62.151 22.8059 62.664 22.9543 63.1771 23.1027C63.1705 23.1659 63.1639 23.2292 63.1574 23.2924C61.1168 22.9021 59.3006 23.3323 57.7135 24.7967C58.0547 23.5568 59.9022 22.5629 61.5975 22.6518Z" fill="#EBEBEB"/>
    <path d="M62.4941 15.9577C62.0036 16.3005 61.4957 16.4958 60.8793 16.4884C62.4779 15.5609 63.28 14.2963 62.741 12.4311C63.7431 12.8176 63.6076 14.9859 62.4941 15.9577Z" fill="#EBEBEB"/>
    <path d="M32.7098 63.0854C32.523 63.2519 32.3629 63.4802 32.1448 63.5746C31.0292 64.0574 30.2985 64.9125 29.7342 65.9477C29.6722 66.0614 29.5659 66.151 29.4028 66.1967C29.5928 65.6925 29.7611 65.1789 29.977 64.6862C30.4647 63.5736 31.3127 62.9543 32.5907 62.9215C32.6625 62.9955 32.6862 63.0404 32.7098 63.0854Z" fill="#EEEFEF"/>
    <path d="M49.3436 31.0159C48.6601 31.3607 48.0213 31.7276 47.2872 31.8859C49.0262 30.6937 50.9757 29.7307 51.6206 27.437C51.9368 28.1852 50.8552 30.2636 49.3436 31.0159Z" fill="#E7E8E7"/>
    <path d="M75.5365 35.0002C74.9618 35.2202 74.8639 35.7403 74.6596 36.2396C74.5343 35.5314 74.2502 34.9916 73.453 34.8603C74.2397 34.7204 74.5073 34.1826 74.6493 33.4753C74.8832 34.1503 75.1353 34.7889 75.9479 34.9137C75.8203 34.9373 75.6927 34.9609 75.5365 35.0002Z" fill="#EEEFEF"/>
    <path d="M27.4893 30.9236C29.4268 32.0859 31.2396 33.4142 32.8855 35.0044C32.8098 35.0537 32.7262 35.0736 32.5953 35.108C31.442 34.1973 30.34 33.2669 29.2236 32.3542C29.1136 32.2643 28.9152 32.2825 28.7578 32.2504C28.4634 32.006 28.1717 31.7579 27.8717 31.5205C27.8209 31.4803 27.7339 31.4856 27.6272 31.4792C27.5907 31.4885 27.5931 31.486 27.613 31.4588C27.585 31.2623 27.5371 31.093 27.4893 30.9236Z" fill="#202120"/>
    <path d="M28.7864 32.2601C28.9153 32.2825 29.1137 32.2643 29.2237 32.3542C30.3401 33.2669 31.4421 34.1973 32.5761 35.1347C32.8228 35.419 33.0415 35.6914 33.2601 35.9637C33.2309 35.9927 33.2017 36.0216 33.1725 36.0506C32.9251 35.8364 32.6858 35.6118 32.4275 35.4118C32.2548 35.2782 32.1019 34.9324 31.8175 35.2886C31.8155 35.2912 31.7116 35.2125 31.6944 35.1105C31.7547 35.0325 31.7758 35.0158 31.7969 34.9991C31.781 34.9908 31.7521 34.9738 31.751 34.9754C31.728 35.0098 31.7081 35.0463 31.6875 35.0823C31.6604 35.076 31.6333 35.0696 31.6278 35.0134C31.6651 34.9294 31.6808 34.8954 31.731 34.7863C31.6417 34.8923 31.6059 34.9348 31.5701 34.9772C31.4344 34.851 31.2987 34.7247 31.2128 34.5791C31.3341 34.5741 31.4055 34.5884 31.477 34.6027C31.48 34.5791 31.4831 34.5555 31.4861 34.5319C31.392 34.525 31.2979 34.5181 31.2039 34.5112C31.0768 34.4206 30.9359 34.3443 30.825 34.237C30.1511 33.5852 29.4841 32.9262 28.7864 32.2601Z" fill="#E7E8E7"/>
    <path d="M32.7391 63.0743C32.6862 63.0404 32.6625 62.9955 32.6283 62.9273C32.7949 62.773 33.019 62.6752 33.1405 62.5044C33.5095 61.9853 33.953 61.6142 34.6449 61.5164C34.6222 61.9545 34.4548 62.2179 34.1445 62.4812C33.731 62.8319 33.4043 63.2864 33.0502 63.7047C32.9472 63.8264 32.8779 63.9765 32.7376 64.2036C32.793 63.7435 32.8355 63.3916 32.8762 63.0395C32.8765 63.0361 32.8509 63.0233 32.8415 63.0266C32.816 63.0354 32.7926 63.0505 32.7391 63.0743Z" fill="#E7E8E7"/>
    <path d="M60.1472 43.0804C60.0355 43.1513 59.9319 43.1886 59.795 43.2216C59.7355 42.9229 59.7092 42.6286 59.683 42.3344C59.3399 42.9742 58.8687 43.4404 58.1691 43.6536C58.9498 42.9389 59.5777 42.1269 59.9035 41.0272C59.9941 41.7542 60.0747 42.4005 60.1472 43.0804Z" fill="#D9D9D8"/>
    <path d="M54.9058 38.4573C54.0935 38.8971 53.34 39.3924 52.3345 39.5699C53.4733 38.6756 54.6526 38.1144 55.9029 37.6953C55.9246 37.7327 55.9464 37.7702 55.9682 37.8076C55.6238 38.019 55.2794 38.2303 54.9058 38.4573Z" fill="#D9D9D8"/>
    <path d="M28.057 55.481C27.8467 55.4437 27.6507 55.3707 27.4546 55.2977C27.4673 55.2418 27.48 55.1859 27.4927 55.13C27.6902 55.13 27.888 55.1237 28.0852 55.1325C28.1884 55.1371 28.2905 55.168 28.393 55.1871C28.3887 55.0851 28.3662 54.9793 28.3866 54.8826C28.3996 54.8213 28.4765 54.7736 28.5545 54.7199C28.3706 55.0218 28.6036 54.9246 28.7728 54.9656C29.5943 55.1648 30.409 55.3921 31.2247 55.6148C31.2492 55.6215 31.2575 55.6878 31.2666 55.71C30.2004 55.6217 29.1358 55.5335 28.057 55.481Z" fill="#F6F5F6"/>
    <path d="M20.6732 48.6783C20.5285 48.6083 20.414 48.5544 20.2062 48.4566C20.8553 48.3937 21.0223 48.0106 21.1065 47.5052C21.318 47.9297 21.3832 48.4578 22.0138 48.5244C21.328 48.6363 21.2821 49.1611 21.1885 49.6249C21.0289 49.3187 20.8662 49.0067 20.6732 48.6783Z" fill="#EDEDED"/>
    <path d="M74.0134 47.8231C73.8427 47.7179 73.6946 47.637 73.6256 47.5993C73.8811 47.3069 74.1493 47 74.3639 46.7543C74.542 46.984 74.7873 47.3004 75.0272 47.6097C74.5556 47.6985 74.5061 48.1958 74.3791 48.6115C74.2601 48.3464 74.1481 48.0969 74.0134 47.8231Z" fill="#EBEBEB"/>
    <path d="M26.1113 54.7647C26.1364 54.8734 26.1294 54.9806 26.1166 55.0871C26.095 55.2669 26.0698 55.4462 26.0505 55.6582C25.3793 55.5599 24.7037 55.4291 24.0281 55.2983C24.0265 55.2635 24.0249 55.2286 24.0233 55.1938C24.7077 55.0501 25.3921 54.9065 26.1113 54.7647Z" fill="#F6F5F6"/>
    <path d="M73.5732 62.4352C73.6528 62.2358 73.7474 62.0602 73.8456 61.8521C74.299 62.4481 74.7487 63.0766 75.19 63.7613C75.1258 63.8389 75.0699 63.8601 75.014 63.8814C74.5387 63.4073 74.0635 62.9331 73.5732 62.4352Z" fill="#F3F3F3"/>
    <path d="M38.2417 14.3396C38.4843 14.1001 38.6961 13.8701 38.8604 13.6917C39.043 13.9091 39.2849 14.1969 39.4758 14.424C39.2753 14.7234 39.037 15.0793 38.8226 15.3995C38.7279 15.0108 38.6171 14.5364 37.9714 14.4301C38.0989 14.387 38.1549 14.368 38.2417 14.3396Z" fill="#E7E8E7"/>
    <path d="M36.1166 60.6443C35.8257 61.0352 35.5348 61.4261 35.183 61.8262C35.0099 61.8274 34.8978 61.8194 34.7856 61.8114C34.7843 61.7952 34.7831 61.779 34.8187 61.7222C34.8748 61.5827 34.8941 61.4839 34.9134 61.385C35.0916 61.0613 35.2697 60.7375 35.5084 60.3955C35.6909 60.3757 35.8129 60.3741 35.9349 60.3725C35.9349 60.3725 35.9375 60.375 35.9389 60.4053C35.9991 60.5051 36.0579 60.5747 36.1166 60.6443Z" fill="#F6F5F6"/>
    <path d="M64.0893 37.7546C64.1286 37.7641 64.1424 37.7788 64.1403 37.7908C64.0381 38.3899 62.7955 39.681 62.1685 39.8163C62.8091 39.1181 63.4328 38.4383 64.0893 37.7546Z" fill="#D9D9D8"/>
    <path d="M47.3403 62.9782C47.5049 62.6908 47.6695 62.4033 47.8923 62.0921C47.9829 61.9944 48.0155 61.9205 48.048 61.8466C48.1532 61.6876 48.2585 61.5286 48.4061 61.3824C48.5007 61.4144 48.553 61.4337 48.6052 61.4529C48.6052 61.4529 48.6054 61.4531 48.6054 61.4908C48.5801 61.7261 48.5549 61.9238 48.5296 62.1215C48.3007 62.398 48.0719 62.6746 47.7788 62.9657C47.5898 62.9795 47.4651 62.9789 47.3403 62.9782Z" fill="#F6F6F5"/>
    <path d="M52.7466 43.0578C52.7713 42.8592 52.7938 42.7012 52.8351 42.4112C53.0021 43.3949 53.1458 44.2418 53.2895 45.0888C52.8182 44.4953 52.7286 43.8101 52.7466 43.0578Z" fill="#D9D9D8"/>
    <path d="M59.2116 29.4214C59.3242 29.4014 59.4185 29.3991 59.559 29.4082C59.167 30.2688 58.6261 30.7812 58.1891 30.8016C58.5129 30.3624 58.8532 29.9007 59.2116 29.4214Z" fill="#E7E8E7"/>
    <path d="M56.1606 45.8232C55.7861 46.0294 55.4391 46.2184 55.0922 46.4073C55.0717 46.37 55.0511 46.3326 55.0305 46.2953C55.6783 45.8834 56.326 45.4716 56.9738 45.0597C56.981 45.0722 56.9883 45.0848 56.9956 45.0973C56.7265 45.3335 56.4574 45.5697 56.1606 45.8232Z" fill="#D9D9D8"/>
    <path d="M47.3156 62.9957C47.4652 62.9789 47.5899 62.9795 47.7521 62.9803C47.4083 63.4726 47.027 63.9648 46.6458 64.457C46.6147 64.4349 46.5837 64.4128 46.5526 64.3906C46.7986 63.9315 47.0447 63.4724 47.3156 62.9957Z" fill="#F3F3F3"/>
    <path d="M71.4127 54.0646C71.3175 53.9325 71.2373 53.827 71.1434 53.7035C71.2578 53.5692 71.3744 53.4323 71.5128 53.2699C71.6282 53.4253 71.7309 53.5638 71.8677 53.748C71.7112 53.87 71.5695 53.9806 71.4127 54.0646Z" fill="#D9D9D8"/>
    <path d="M26.7572 59.1574C26.8443 58.9804 26.9447 58.8297 27.051 58.6702C27.349 58.9575 27.4639 59.2153 27.0417 59.4949C26.9555 59.396 26.863 59.2899 26.7572 59.1574Z" fill="#D9D9D8"/>
    <path d="M29.1769 20.4013C29.2893 20.2481 29.3934 20.1239 29.5145 19.9793C29.6288 20.1326 29.7319 20.2709 29.8472 20.4257C29.7412 20.5715 29.6384 20.7129 29.5106 20.8886C29.389 20.7256 29.2787 20.578 29.1769 20.4013Z" fill="#D9D9D8"/>
    <path d="M69.6469 56.2888C69.5617 56.1511 69.4904 56.0428 69.4198 55.9355C69.5405 55.7794 69.656 55.63 69.7815 55.4677C69.8833 55.6193 69.9882 55.7757 70.1368 55.9971C69.9759 56.1057 69.8184 56.212 69.6469 56.2888Z" fill="#D9D9D8"/>
    <path d="M32.1441 35.4365C32.4073 35.7968 32.6442 36.1294 32.881 36.4621C32.8353 36.4934 32.7897 36.5246 32.744 36.5559C32.4404 36.1694 32.1368 35.7829 31.8333 35.3965C31.8569 35.3655 31.8806 35.3345 31.9043 35.3035C31.9755 35.3386 32.0467 35.3737 32.1441 35.4365Z" fill="#D9D9D8"/>
    <path d="M55.9041 40.1603C55.967 40.1753 56.0036 40.2013 56.0569 40.2569C55.7438 40.6264 55.4141 40.9661 55.0844 41.3059C55.0491 41.2714 55.0138 41.2368 54.9785 41.2022C55.2783 40.8586 55.5781 40.515 55.9041 40.1603Z" fill="#D9D9D8"/>
    <path d="M28.856 61.7158C28.946 61.8514 29.0184 61.9607 29.0977 62.0802C29.0005 62.2127 28.9052 62.3424 28.7913 62.4977C28.6733 62.3565 28.5655 62.2273 28.4169 62.0494C28.5623 61.9252 28.7004 61.8073 28.856 61.7158Z" fill="#E7E8E7"/>
    <path d="M30.3787 48.7717C30.1454 48.5238 29.9326 48.2461 29.7198 47.9684C29.7399 47.9504 29.76 47.9324 29.7801 47.9144C30.0337 48.0997 30.2874 48.285 30.5551 48.4932C30.5124 48.5914 30.4559 48.6667 30.3787 48.7717Z" fill="#202120"/>
    <path d="M46.0715 56.8651C46.4156 56.6489 46.7598 56.4327 47.1039 56.2165C47.1262 56.2514 47.1484 56.2863 47.1707 56.3212C46.8617 56.5331 46.5528 56.745 46.2 56.9401C46.128 56.9039 46.0998 56.8845 46.0715 56.8651Z" fill="#D9D9D8"/>
    <path d="M27.2781 54.5408C27.255 54.6898 27.1975 54.8338 27.1399 54.9779C27.0183 54.8876 26.8967 54.7974 26.7742 54.6728C26.9301 54.6042 27.0868 54.57 27.2781 54.5408Z" fill="#F6F5F6"/>
    <path d="M60.3752 36.5689C60.6919 36.3633 61.0287 36.1713 61.3656 35.9793C61.385 36.0122 61.4043 36.0452 61.4236 36.0781C61.1242 36.2666 60.8249 36.4552 60.4944 36.6476C60.4407 36.6285 60.4181 36.6055 60.3752 36.5689Z" fill="#202120"/>
    <path d="M75.0234 63.9104C75.0698 63.8601 75.1257 63.8389 75.1974 63.7912C75.359 63.9888 75.5048 64.2129 75.6505 64.4369C75.6139 64.4651 75.5773 64.4933 75.5408 64.5215C75.3715 64.3275 75.2022 64.1334 75.0234 63.9104Z" fill="#D9D9D8"/>
    <path d="M60.1665 60.3123C60.2185 60.3821 60.2412 60.4596 60.2906 60.5531C60.0546 60.6767 59.7918 60.7842 59.529 60.8916C59.5076 60.8512 59.4863 60.8107 59.465 60.7702C59.6891 60.6201 59.9132 60.47 60.1665 60.3123Z" fill="#F3F3F3"/>
    <path d="M48.5563 62.1066C48.555 61.9238 48.5802 61.7261 48.6056 61.4909C48.7412 61.4681 48.8767 61.4828 49.0346 61.523C48.899 61.7295 48.741 61.9107 48.5563 62.1066Z" fill="#F3F3F3"/>
    <path d="M27.0728 55.9689C27.138 55.8965 27.2628 55.7699 27.3227 55.7954C27.4807 55.8629 27.6105 55.9964 27.7565 56.1356C27.5418 56.1064 27.3222 56.0452 27.0728 55.9689Z" fill="#F6F5F6"/>
    <path d="M51.4492 58.4021C51.4483 58.7787 51.2016 58.9146 50.8271 58.9266C51.0051 58.7471 51.2122 58.5782 51.4492 58.4021Z" fill="#F3F3F3"/>
    <path d="M59.7715 29.1999C59.8072 29.0095 59.8686 28.8205 59.9474 28.5783C60.1589 28.8834 60.1099 29.0941 59.8764 29.2888C59.831 29.2604 59.8141 29.2308 59.7715 29.1999Z" fill="#E7E8E7"/>
    <path d="M53.3129 58.2275C53.2842 57.9461 53.2564 57.6192 53.7234 57.9474C53.6162 58.0481 53.4797 58.1353 53.3129 58.2275Z" fill="#F3F3F3"/>
    <path d="M34.9529 62.3516C34.8832 62.5126 34.8136 62.6736 34.744 62.8345C34.6931 62.8187 34.6423 62.8029 34.5914 62.7871C34.6146 62.68 34.6377 62.573 34.7101 62.4414C34.8238 62.3951 34.8883 62.3734 34.9529 62.3516Z" fill="#E7E8E7"/>
    <path d="M52.8353 48.6968C52.8451 48.7976 52.8377 48.8849 52.8282 49.016C52.7451 48.9164 52.664 48.773 52.5341 48.5433C52.6944 48.6223 52.7562 48.6528 52.8353 48.6968Z" fill="#E7E8E7"/>
    <path d="M56.6343 56.6195C56.5717 56.5594 56.5383 56.4983 56.5049 56.4373C56.6525 56.4297 56.8001 56.4221 56.9634 56.4444C56.8738 56.5224 56.7687 56.5705 56.6343 56.6195Z" fill="#F3F3F3"/>
    <path d="M34.9754 62.3273C34.8883 62.3733 34.8238 62.3951 34.7252 62.4146C34.7013 62.2928 34.7116 62.1731 34.786 62.0222C34.9404 61.9931 35.0307 61.9953 35.1209 61.9975C35.08 62.0993 35.039 62.2011 34.9754 62.3273Z" fill="#F6F5F6"/>
    <path d="M58.5208 59.2468C58.5585 59.2702 58.5682 59.3108 58.5912 59.4124C58.4932 59.5475 58.3819 59.6215 58.2705 59.6955C58.2434 59.6655 58.2162 59.6354 58.1891 59.6054C58.2903 59.4916 58.3916 59.3778 58.5208 59.2468Z" fill="#F3F3F3"/>
    <path d="M35.9337 60.3413C35.8128 60.3741 35.6908 60.3757 35.5322 60.3765C35.5498 60.3051 35.604 60.2346 35.6587 60.1365C35.7503 60.176 35.8414 60.243 35.9337 60.3413Z" fill="#E7E8E7"/>
    <path d="M68.8805 60.041C68.659 60.1543 68.532 60.0464 68.4655 59.7896C68.5952 59.8417 68.7297 59.9284 68.8805 60.041Z" fill="#F3F3F3"/>
    <path d="M63.478 56.0824C63.6731 56.0855 63.9011 56.1039 63.6381 56.3711C63.5745 56.2731 63.5307 56.1921 63.478 56.0824Z" fill="#F3F3F3"/>
    <path d="M36.1471 60.6418C36.0578 60.5747 35.999 60.5051 35.9402 60.4065C36.0566 60.4399 36.1732 60.5023 36.294 60.5953C36.258 60.6303 36.2178 60.6347 36.1471 60.6418Z" fill="#E7E8E7"/>
    <path d="M35.9814 34.8078C35.7153 34.7753 35.5882 34.6714 35.8027 34.3742C35.8596 34.5132 35.9074 34.63 35.9704 34.7778C35.9855 34.8089 35.979 34.8058 35.9814 34.8078Z" fill="#D9D9D8"/>
    <path d="M62.5621 57.3807C62.5876 57.1963 62.6596 57.0472 62.8837 57.2541C62.7921 57.3145 62.6929 57.3483 62.5621 57.3807Z" fill="#F3F3F3"/>
    <path d="M66.1381 57.6508C66.0056 57.6553 65.8675 57.6381 65.6417 57.6101C65.7665 57.5378 65.8164 57.5089 65.9002 57.4778C66.0004 57.5267 66.0664 57.5779 66.1381 57.6508Z" fill="#F3F3F3"/>
    <path d="M50.1767 59.4335C50.2465 59.6347 50.1833 59.7623 49.9054 59.7473C49.9618 59.6469 50.0554 59.5459 50.1767 59.4335Z" fill="#F3F3F3"/>
    <path d="M26.2245 51.0833C26.5833 51.0175 26.3414 51.2738 26.3735 51.4279C26.3128 51.3493 26.268 51.2325 26.2245 51.0833Z" fill="#F6F5F6"/>
    <path d="M65.5859 55.8267C65.6607 55.7652 65.7355 55.7375 65.8404 55.7093C65.7938 55.8197 65.7171 55.9307 65.6132 56.052C65.5859 55.9951 65.5859 55.9277 65.5859 55.8267Z" fill="#F3F3F3"/>
    <path d="M28.3676 55.5914C28.2754 55.5998 28.1597 55.5872 28.0413 55.5434C28.1404 55.5316 28.2423 55.5511 28.3676 55.5914Z" fill="#F6F5F6"/>
    <path d="M35.1365 61.9837C35.0307 61.9953 34.9404 61.9931 34.805 61.9911C34.7599 61.9502 34.7599 61.9092 34.7728 61.8398C34.8977 61.8194 35.0099 61.8274 35.1627 61.8471C35.1863 61.8958 35.1692 61.9328 35.1365 61.9837Z" fill="#E7E8E7"/>
    <path d="M66.7087 59.9524C66.7819 59.9309 66.8748 59.9433 66.9677 59.9558C66.9716 59.9876 66.9756 60.0194 66.9795 60.0512C66.8913 60.0691 66.8031 60.0869 66.6814 60.1022C66.6747 60.0619 66.7015 60.0241 66.7087 59.9524Z" fill="#F3F3F3"/>
    <path d="M66.4103 57.9752C66.334 58.0211 66.2571 58.0469 66.1803 58.0727C66.1978 58.004 66.2154 57.9353 66.2664 57.8567C66.3365 57.8828 66.3731 57.919 66.4103 57.9752Z" fill="#F3F3F3"/>
    <path d="M61.7835 59.4051C61.8173 59.5884 61.7629 59.6879 61.5333 59.5618C61.5875 59.5026 61.6709 59.4551 61.7835 59.4051Z" fill="#F3F3F3"/>
    <path d="M68.6283 61.0235C68.7317 60.9669 68.8245 60.9421 68.9172 60.9173C68.928 60.9501 68.9389 60.9828 68.9498 61.0155C68.8428 61.0429 68.7359 61.0704 68.5976 61.0983C68.5834 61.0842 68.6005 61.0698 68.6283 61.0235Z" fill="#F3F3F3"/>
    <path d="M48.6054 61.4175C48.553 61.4337 48.5008 61.4144 48.4333 61.371C48.4645 61.2711 48.5109 61.1954 48.5822 61.1093C48.6066 61.1933 48.6061 61.2877 48.6054 61.4175Z" fill="#F3F3F3"/>
    <path d="M64.5222 57.5262C64.5575 57.4468 64.6089 57.3885 64.7295 57.252C64.7076 57.4165 64.6994 57.478 64.6893 57.5657C64.6378 57.577 64.588 57.5622 64.5222 57.5262Z" fill="#F3F3F3"/>
    <path d="M67.9452 60.9159C68.0059 60.8947 68.0861 60.8873 68.1814 60.9035C68.1192 60.9279 68.0419 60.9288 67.9452 60.9159Z" fill="#F3F3F3"/>
    <path d="M62.5024 56.4299C62.4539 56.4753 62.3763 56.5169 62.2809 56.5369C62.3332 56.4855 62.4033 56.4559 62.5024 56.4299Z" fill="#F3F3F3"/>
    <path d="M58.7326 54.9068C58.7403 54.9776 58.7223 55.0453 58.7044 55.113C58.6643 55.0859 58.6242 55.0588 58.5798 55.0039C58.6194 54.9521 58.6632 54.9279 58.7326 54.9068Z" fill="#F3F3F3"/>
    <path d="M53.8441 57.9333C53.8898 57.881 53.9635 57.8265 54.069 57.7735C54.0246 57.8271 53.9484 57.8791 53.8441 57.9333Z" fill="#F3F3F3"/>
    <path d="M50.5248 60.2037C50.5614 60.1451 50.625 60.0802 50.7205 60.0139C50.6855 60.0742 50.6187 60.1357 50.5248 60.2037Z" fill="#F3F3F3"/>
    <path d="M52.5226 57.6672C52.478 57.7261 52.4039 57.7898 52.295 57.851C52.3379 57.7897 52.4156 57.7308 52.5226 57.6672Z" fill="#F3F3F3"/>
    <path d="M35.7546 35.7004C35.7756 35.6666 35.7945 35.6651 35.8419 35.6627C35.898 35.7448 35.9258 35.8279 35.9535 35.911C35.929 35.9188 35.9046 35.9266 35.8801 35.9344C35.8376 35.8672 35.7951 35.8 35.7546 35.7004Z" fill="#D9D9D8"/>
    <path d="M66.7218 61.9006C66.7557 61.9239 66.7578 61.9518 66.763 62.0215C66.6715 62.0694 66.5767 62.0756 66.3607 62.0895C66.5435 61.9871 66.6168 61.9461 66.7218 61.9006Z" fill="#F3F3F3"/>
    <path d="M28.8829 55.7502C28.8004 55.7532 28.6968 55.734 28.5813 55.6842C28.6669 55.6783 28.7643 55.7031 28.8829 55.7502Z" fill="#F6F5F6"/>
    <path d="M34.8932 61.4067C34.8951 61.4839 34.8755 61.5827 34.8299 61.7006C34.8265 61.6225 34.8491 61.5254 34.8932 61.4067Z" fill="#E7E8E7"/>
    <path d="M59.4164 58.9353C59.4612 58.878 59.5356 58.8182 59.6434 58.7582C59.5999 58.8163 59.5229 58.8745 59.4164 58.9353Z" fill="#F3F3F3"/>
    <path d="M35.5054 35.0625C35.546 35.0878 35.5826 35.1388 35.5997 35.2039C35.5539 35.1748 35.5276 35.1315 35.5054 35.0625Z" fill="#D9D9D8"/>
    <path d="M59.2217 58.5457C59.2062 58.6035 59.168 58.6666 59.0854 58.7266C59.0937 58.666 59.1463 58.6085 59.2217 58.5457Z" fill="#F3F3F3"/>
    <path d="M48.0231 61.8627C48.0156 61.9205 47.9831 61.9944 47.9177 62.0748C47.9227 62.0138 47.9604 61.9463 48.0231 61.8627Z" fill="#F3F3F3"/>
    <path d="M31.2054 34.5163C31.298 34.5181 31.392 34.525 31.4861 34.5319C31.4831 34.5555 31.48 34.5791 31.477 34.6027C31.4056 34.5884 31.3341 34.5741 31.2321 34.5451C31.2015 34.5304 31.207 34.5214 31.2054 34.5163Z" fill="#D9D9D8"/>
    <path d="M60.3082 55.3935C60.3344 55.3599 60.3847 55.3293 60.4483 55.3169C60.4185 55.3556 60.3754 55.376 60.3082 55.3935Z" fill="#F3F3F3"/>
    <path d="M65.2258 56.5132C65.1814 56.4848 65.138 56.4536 65.0945 56.4224C65.1373 56.4296 65.1802 56.4368 65.2299 56.4739C65.2368 56.5038 65.2266 56.5103 65.2258 56.5132Z" fill="#F3F3F3"/>
    <path d="M68.3871 60.9468C68.423 60.9189 68.481 60.907 68.5507 60.9152C68.5114 60.9445 68.4603 60.9537 68.3871 60.9468Z" fill="#F3F3F3"/>
    <path d="M63.3054 60.906C63.3398 60.9461 63.3399 60.9839 63.34 61.0498C63.2795 61.0644 63.219 61.0507 63.1584 61.0371C63.196 60.9926 63.2335 60.9481 63.3054 60.906Z" fill="#F3F3F3"/>
    <path d="M52.9798 57.3977C52.9591 57.4442 52.9107 57.4929 52.8456 57.5216C52.8699 57.4677 52.9111 57.4338 52.9798 57.3977Z" fill="#F3F3F3"/>
    <path d="M59.6309 29.3991C59.6341 29.3459 59.6588 29.2772 59.7152 29.2037C59.7154 29.2604 59.6839 29.322 59.6309 29.3991Z" fill="#E7E8E7"/>
    <path d="M72.0369 60.5378C71.9967 60.5509 71.9395 60.5448 71.8784 60.5146C71.923 60.4999 71.9714 60.5093 72.0369 60.5378Z" fill="#F3F3F3"/>
    <path d="M54.204 57.7444C54.2345 57.6986 54.2938 57.6507 54.3853 57.6068C54.3559 57.6546 54.2943 57.6985 54.204 57.7444Z" fill="#F3F3F3"/>
    <path d="M49.9034 60.7562C49.9238 60.701 49.9723 60.6351 50.056 60.5698C50.0379 60.6287 49.9848 60.6872 49.9034 60.7562Z" fill="#F3F3F3"/>
    <path d="M49.6271 61.0118C49.6449 60.9588 49.6898 60.8974 49.7668 60.8348C49.7506 60.8903 49.7024 60.9468 49.6271 61.0118Z" fill="#F3F3F3"/>
    <path d="M56.0914 56.8547C56.1271 56.8077 56.192 56.7622 56.2897 56.7289C56.2552 56.7795 56.188 56.8178 56.0914 56.8547Z" fill="#F3F3F3"/>
    <path d="M65.9862 58.5312C65.9945 58.5455 66.0125 58.6035 66.01 58.6629C65.9916 58.6345 65.9938 58.6047 65.9862 58.5312Z" fill="#F3F3F3"/>
    <path d="M72.4053 61.5144C72.3663 61.4669 72.3282 61.416 72.29 61.3651C72.306 61.3544 72.3221 61.3437 72.3381 61.3331C72.3609 61.3735 72.3837 61.4139 72.4092 61.4845C72.412 61.5146 72.4062 61.511 72.4053 61.5144Z" fill="#F3F3F3"/>
    <path d="M31.6881 35.0862C31.708 35.0463 31.7279 35.0098 31.751 34.9754C31.752 34.9738 31.7809 34.9908 31.7969 34.9991C31.7758 35.0158 31.7547 35.0325 31.7143 35.0719C31.6949 35.0946 31.6887 35.09 31.6881 35.0862Z" fill="#D9D9D8"/>
    <path d="M31.573 34.979C31.6058 34.9348 31.6416 34.8923 31.7309 34.7863C31.6807 34.8954 31.665 34.9294 31.6159 34.9733C31.5825 34.9832 31.576 34.9808 31.573 34.979Z" fill="#D9D9D8"/>
    <path d="M36.9845 47.4393C36.9768 47.4254 36.969 47.4232 36.9612 47.421C36.9689 47.431 36.9767 47.441 36.9845 47.4393Z" fill="#F0F0F0"/>
    <path d="M39.0378 44.7059C39.0467 44.701 39.0597 44.6928 39.0727 44.6846C39.0653 44.6834 39.058 44.6822 39.045 44.6972C39.0393 44.7134 39.0419 44.7026 39.0378 44.7059Z" fill="#F0F0F0"/>
    <path d="M30.6666 48.5835C30.6926 48.5791 30.7177 48.6034 30.7468 48.6557C30.7225 48.6599 30.6942 48.636 30.6666 48.5835Z" fill="#202120"/>
    <path d="M46.0568 56.9051C46.0998 56.8845 46.1281 56.9039 46.1691 56.9457C46.1353 56.9604 46.0886 56.9528 46.0568 56.9051Z" fill="#F0F0F0"/>
    <path d="M27.4665 30.9034C27.5372 31.093 27.5851 31.2623 27.6123 31.4605C27.4668 31.3275 27.342 31.1657 27.217 30.9302C27.222 30.8258 27.2272 30.7952 27.2324 30.7646C27.3028 30.8041 27.3732 30.8437 27.4665 30.9034Z" fill="#020202"/>
    <path d="M27.9489 53.6032C27.9467 53.5356 27.9714 53.4696 27.9961 53.4035C28.022 53.4139 28.0479 53.4243 28.0738 53.4346C28.0411 53.4913 28.0084 53.548 27.9489 53.6032Z" fill="#F6F5F6"/>
    <path d="M27.215 30.7424C27.2272 30.7952 27.2221 30.8258 27.2088 30.9023C27.1591 30.8818 27.1175 30.8153 27.0759 30.7489C27.1165 30.7394 27.157 30.7298 27.215 30.7424Z" fill="#202120"/>
    <path d="M64.0518 44.4661C64.0546 44.4018 64.0774 44.3544 64.1271 44.251C64.1343 44.3644 64.1377 44.4165 64.1266 44.4922C64.0987 44.505 64.0852 44.494 64.0518 44.4661Z" fill="#020202"/>
    <path d="M66.0325 37.3706C66.0276 37.3969 66.0168 37.4164 66.0061 37.4359C65.9962 37.4124 65.9864 37.3889 65.996 37.3576C66.0155 37.3498 66.0266 37.3639 66.0325 37.3706Z" fill="#020202"/>
    <path d="M49.545 60.5127C49.5418 60.507 49.5482 60.5184 49.545 60.5127V60.5127Z" fill="#F3F3F3"/>
    <path d="M65.5816 55.7816C65.5757 55.7813 65.5651 55.7688 65.5544 55.7563C65.5619 55.7607 65.5693 55.7651 65.5816 55.7816Z" fill="#F3F3F3"/>
    <path d="M72.2128 30.8389C72.2083 30.8649 72.1809 30.8679 72.1536 30.871C72.1657 30.8526 72.1779 30.8343 72.2128 30.8389Z" fill="#020202"/>
    <path d="M71.9644 30.9853C71.9893 30.973 72.0421 30.9783 72.0736 31.0066C72.0322 31.0207 72.0122 31.0117 71.9644 30.9853Z" fill="#020202"/>
    <path d="M66.9227 18.2148C65.9923 19.3274 64.8964 20.1044 63.4175 19.8234C62.6193 19.6717 61.8735 19.2438 61.1166 18.8565C63.3267 19.2741 65.3535 18.8944 67.2644 17.6914C67.1577 17.8573 67.0509 18.0232 66.9227 18.2148Z" fill="#0F1010"/>
    <path d="M67.2666 17.5898C67.2389 17.5896 67.2321 17.5688 67.2253 17.548C67.2461 17.5551 67.2668 17.5621 67.2666 17.5898Z" fill="#0F1010"/>
    <path d="M40.3015 26.5544C40.3286 26.5166 40.3762 26.5073 40.4238 26.498C40.3898 26.5263 40.3559 26.5546 40.3015 26.5544Z" fill="#020202"/>
    <path d="M40.5425 26.3893C40.5157 26.3906 40.4764 26.3589 40.4646 26.3119C40.5047 26.3166 40.5173 26.3365 40.5425 26.3893Z" fill="#020202"/>
    <path d="M38.6253 52.3844C38.567 52.3902 38.528 52.3651 38.4891 52.3401C38.541 52.3445 38.5929 52.349 38.6253 52.3844Z" fill="#020202"/>
    <path d="M38.7006 52.5361C38.6748 52.5316 38.6717 52.5047 38.6687 52.4777C38.6869 52.4897 38.7052 52.5017 38.7006 52.5361Z" fill="#020202"/>
    <path d="M51.3507 80.9234C51.6721 81.7184 51.525 82.4125 50.9856 82.7597C50.4253 83.1203 49.7368 82.9779 49.3734 82.4263C48.9742 81.8205 49.1131 80.9194 49.6661 80.5268C50.2274 80.1282 50.8821 80.2726 51.3507 80.9234Z" fill="#070707"/>
    <path d="M70.0979 20.967C70.1598 20.9236 70.2217 20.8801 70.2836 20.8367C70.3003 20.8513 70.317 20.8658 70.3337 20.8804C70.3028 20.9271 70.2719 20.9739 70.1929 21.0125C70.1292 20.9918 70.1135 20.9794 70.0979 20.967Z" fill="#020202"/>
    <path d="M71.1788 20.3822C71.1563 20.3472 71.1697 20.3107 71.1832 20.2741C71.1937 20.3097 71.2042 20.3452 71.1788 20.3822Z" fill="#020202"/>
    <path d="M69.9833 21.1027C69.9876 21.0471 70.0209 21.0159 70.076 20.9758C70.1135 20.9794 70.1291 20.9919 70.1667 21.0246C70.1647 21.0808 70.1407 21.1168 70.0959 21.1609C70.0541 21.1551 70.0331 21.141 69.9833 21.1027Z" fill="#020202"/>
    <path d="M55.0262 81.2026C55.0265 80.8656 55.0265 80.5702 55.0265 80.2814C55.6888 80.1869 56.0665 80.3785 56.1112 80.804C56.1632 81.2996 55.8275 81.5708 55.0606 81.6097C55.0492 81.4898 55.0376 81.367 55.0262 81.2026Z" fill="#0F1010"/>
    <path d="M34.3984 37.0246C34.3425 37.0311 34.3043 37.0054 34.266 36.9797C34.316 36.984 34.366 36.9882 34.3984 37.0246Z" fill="#020202"/>
    <path d="M53.4531 49.2316C53.532 49.2538 53.6144 49.2773 53.6967 49.3009C53.6808 49.3349 53.6649 49.3689 53.6489 49.4028C53.587 49.3643 53.525 49.3257 53.4579 49.257C53.4527 49.2267 53.4566 49.2331 53.4531 49.2316Z" fill="#E7E8E7"/>
    <path d="M60.1366 28.505C60.1379 28.4813 60.1506 28.4684 60.1634 28.4555C60.1582 28.4756 60.1531 28.4957 60.1366 28.505Z" fill="#E7E8E7"/>
  </g>
  <defs>
    <clipPath id="clip0_106_1397">
      <rect width="92" height="92" fill="white"/>
    </clipPath>
  </defs>
</svg>