<svg width="221" height="31" viewBox="0 0 221 31" fill="none" xmlns="http://www.w3.org/2000/svg">
<path d="M5.99854 16.6641C5.99854 16.4482 5.96468 16.2578 5.89697 16.0928C5.8335 15.9235 5.71924 15.7712 5.5542 15.6357C5.39339 15.5003 5.16911 15.3713 4.88135 15.2485C4.59782 15.1258 4.23812 15.001 3.80225 14.874C3.34521 14.7386 2.93262 14.5884 2.56445 14.4233C2.19629 14.2541 1.88102 14.0615 1.61865 13.8457C1.35628 13.6299 1.15527 13.3823 1.01562 13.103C0.875977 12.8237 0.806152 12.5042 0.806152 12.1445C0.806152 11.7848 0.880208 11.4526 1.02832 11.1479C1.17643 10.8433 1.38802 10.5788 1.66309 10.3545C1.94238 10.126 2.27458 9.94824 2.65967 9.82129C3.04476 9.69434 3.47428 9.63086 3.94824 9.63086C4.64225 9.63086 5.23047 9.76416 5.71289 10.0308C6.19954 10.2931 6.56982 10.638 6.82373 11.0654C7.07764 11.4886 7.20459 11.9414 7.20459 12.4238H5.98584C5.98584 12.0768 5.91178 11.77 5.76367 11.5034C5.61556 11.2326 5.39128 11.021 5.09082 10.8687C4.79036 10.7121 4.40951 10.6338 3.94824 10.6338C3.51237 10.6338 3.15267 10.6994 2.86914 10.8306C2.58561 10.9618 2.37402 11.1395 2.23438 11.3638C2.09896 11.5881 2.03125 11.8441 2.03125 12.1318C2.03125 12.3265 2.07145 12.5042 2.15186 12.665C2.23649 12.8216 2.36556 12.9676 2.53906 13.103C2.7168 13.2384 2.94108 13.3633 3.21191 13.4775C3.48698 13.5918 3.81494 13.7018 4.1958 13.8076C4.72054 13.9557 5.17334 14.1208 5.5542 14.3027C5.93506 14.4847 6.24821 14.6899 6.49365 14.9185C6.74333 15.1427 6.92741 15.3988 7.0459 15.6865C7.16862 15.9701 7.22998 16.2917 7.22998 16.6514C7.22998 17.028 7.15381 17.3687 7.00146 17.6733C6.84912 17.978 6.63118 18.2383 6.34766 18.4541C6.06413 18.6699 5.72347 18.8371 5.32568 18.9556C4.93213 19.0698 4.49202 19.127 4.00537 19.127C3.57796 19.127 3.1569 19.0677 2.74219 18.9492C2.33171 18.8307 1.95719 18.653 1.61865 18.416C1.28434 18.179 1.01562 17.887 0.8125 17.54C0.613607 17.1888 0.51416 16.7826 0.51416 16.3213H1.73291C1.73291 16.6387 1.79427 16.9116 1.91699 17.1401C2.03971 17.3644 2.20687 17.5506 2.41846 17.6987C2.63428 17.8468 2.8776 17.9569 3.14844 18.0288C3.4235 18.0965 3.70915 18.1304 4.00537 18.1304C4.43278 18.1304 4.7946 18.0711 5.09082 17.9526C5.38704 17.8341 5.61133 17.6649 5.76367 17.4448C5.92025 17.2248 5.99854 16.9645 5.99854 16.6641ZM11.4639 19.127C10.9857 19.127 10.5519 19.0465 10.1626 18.8857C9.77751 18.7207 9.44531 18.4901 9.16602 18.1938C8.89095 17.8976 8.67936 17.5464 8.53125 17.1401C8.38314 16.7339 8.30908 16.2896 8.30908 15.8071V15.5405C8.30908 14.9819 8.3916 14.4847 8.55664 14.0488C8.72168 13.6087 8.94596 13.2363 9.22949 12.9316C9.51302 12.627 9.83464 12.3963 10.1943 12.2397C10.554 12.0832 10.9264 12.0049 11.3115 12.0049C11.8024 12.0049 12.2256 12.0895 12.5811 12.2588C12.9408 12.4281 13.2349 12.665 13.4634 12.9697C13.6919 13.2702 13.8612 13.6257 13.9712 14.0361C14.0812 14.4424 14.1362 14.8867 14.1362 15.3691V15.896H9.00732V14.9375H12.9619V14.8486C12.945 14.5439 12.8815 14.2477 12.7715 13.96C12.6657 13.6722 12.4964 13.4352 12.2637 13.249C12.0309 13.0628 11.7135 12.9697 11.3115 12.9697C11.0449 12.9697 10.7995 13.0269 10.5752 13.1411C10.3509 13.2511 10.1584 13.4162 9.99756 13.6362C9.83675 13.8563 9.71191 14.125 9.62305 14.4424C9.53418 14.7598 9.48975 15.1258 9.48975 15.5405V15.8071C9.48975 16.133 9.53418 16.4398 9.62305 16.7275C9.71615 17.0111 9.84945 17.2607 10.0229 17.4766C10.2007 17.6924 10.4144 17.8617 10.6641 17.9844C10.918 18.1071 11.2057 18.1685 11.5273 18.1685C11.9421 18.1685 12.2933 18.0838 12.5811 17.9146C12.8688 17.7453 13.1206 17.5189 13.3364 17.2354L14.0474 17.8003C13.8993 18.0246 13.7109 18.2383 13.4824 18.4414C13.2539 18.6445 12.9725 18.8096 12.6382 18.9365C12.3081 19.0635 11.9167 19.127 11.4639 19.127ZM18.3574 19.127C17.8792 19.127 17.4455 19.0465 17.0562 18.8857C16.6711 18.7207 16.3389 18.4901 16.0596 18.1938C15.7845 17.8976 15.5729 17.5464 15.4248 17.1401C15.2767 16.7339 15.2026 16.2896 15.2026 15.8071V15.5405C15.2026 14.9819 15.2852 14.4847 15.4502 14.0488C15.6152 13.6087 15.8395 13.2363 16.123 12.9316C16.4066 12.627 16.7282 12.3963 17.0879 12.2397C17.4476 12.0832 17.82 12.0049 18.2051 12.0049C18.696 12.0049 19.1191 12.0895 19.4746 12.2588C19.8343 12.4281 20.1284 12.665 20.3569 12.9697C20.5854 13.2702 20.7547 13.6257 20.8647 14.0361C20.9748 14.4424 21.0298 14.8867 21.0298 15.3691V15.896H15.9009V14.9375H19.8555V14.8486C19.8385 14.5439 19.7751 14.2477 19.665 13.96C19.5592 13.6722 19.39 13.4352 19.1572 13.249C18.9245 13.0628 18.6071 12.9697 18.2051 12.9697C17.9385 12.9697 17.693 13.0269 17.4688 13.1411C17.2445 13.2511 17.0519 13.4162 16.8911 13.6362C16.7303 13.8563 16.6055 14.125 16.5166 14.4424C16.4277 14.7598 16.3833 15.1258 16.3833 15.5405V15.8071C16.3833 16.133 16.4277 16.4398 16.5166 16.7275C16.6097 17.0111 16.743 17.2607 16.9165 17.4766C17.0942 17.6924 17.3079 17.8617 17.5576 17.9844C17.8115 18.1071 18.0993 18.1685 18.4209 18.1685C18.8356 18.1685 19.1868 18.0838 19.4746 17.9146C19.7624 17.7453 20.0142 17.5189 20.23 17.2354L20.9409 17.8003C20.7928 18.0246 20.6045 18.2383 20.376 18.4414C20.1475 18.6445 19.866 18.8096 19.5317 18.9365C19.2017 19.0635 18.8102 19.127 18.3574 19.127ZM25.3145 15.6421V15.4961C25.3145 15.001 25.3864 14.5418 25.5303 14.1187C25.6742 13.6912 25.8815 13.321 26.1523 13.0078C26.4232 12.6904 26.7511 12.445 27.1362 12.2715C27.5213 12.0938 27.953 12.0049 28.4312 12.0049C28.9136 12.0049 29.3473 12.0938 29.7324 12.2715C30.1217 12.445 30.4518 12.6904 30.7227 13.0078C30.9977 13.321 31.2072 13.6912 31.3511 14.1187C31.495 14.5418 31.5669 15.001 31.5669 15.4961V15.6421C31.5669 16.1372 31.495 16.5964 31.3511 17.0195C31.2072 17.4427 30.9977 17.813 30.7227 18.1304C30.4518 18.4435 30.1239 18.689 29.7388 18.8667C29.3579 19.0402 28.9263 19.127 28.4438 19.127C27.9614 19.127 27.5277 19.0402 27.1426 18.8667C26.7575 18.689 26.4274 18.4435 26.1523 18.1304C25.8815 17.813 25.6742 17.4427 25.5303 17.0195C25.3864 16.5964 25.3145 16.1372 25.3145 15.6421ZM26.4888 15.4961V15.6421C26.4888 15.9849 26.529 16.3086 26.6094 16.6133C26.6898 16.9137 26.8104 17.1803 26.9712 17.4131C27.1362 17.6458 27.3415 17.8299 27.5869 17.9653C27.8324 18.0965 28.118 18.1621 28.4438 18.1621C28.7655 18.1621 29.0469 18.0965 29.2881 17.9653C29.5335 17.8299 29.7367 17.6458 29.8975 17.4131C30.0583 17.1803 30.1789 16.9137 30.2593 16.6133C30.3439 16.3086 30.3862 15.9849 30.3862 15.6421V15.4961C30.3862 15.1576 30.3439 14.8381 30.2593 14.5376C30.1789 14.2329 30.0562 13.9642 29.8911 13.7314C29.7303 13.4945 29.5272 13.3083 29.2817 13.1729C29.0405 13.0374 28.757 12.9697 28.4312 12.9697C28.1095 12.9697 27.826 13.0374 27.5806 13.1729C27.3394 13.3083 27.1362 13.4945 26.9712 13.7314C26.8104 13.9642 26.6898 14.2329 26.6094 14.5376C26.529 14.8381 26.4888 15.1576 26.4888 15.4961ZM37.2417 17.4131V12.1318H38.4224V19H37.2988L37.2417 17.4131ZM37.4639 15.9658L37.9526 15.9531C37.9526 16.4102 37.904 16.8333 37.8066 17.2227C37.7135 17.6077 37.5612 17.9421 37.3496 18.2256C37.138 18.5091 36.8608 18.7313 36.5181 18.8921C36.1753 19.0487 35.7585 19.127 35.2676 19.127C34.9333 19.127 34.6265 19.0783 34.3472 18.981C34.0721 18.8836 33.8351 18.7334 33.6362 18.5303C33.4373 18.3271 33.2829 18.0627 33.1729 17.7368C33.0671 17.411 33.0142 17.0195 33.0142 16.5625V12.1318H34.1885V16.5752C34.1885 16.8841 34.2223 17.1401 34.29 17.3433C34.362 17.5422 34.4572 17.7008 34.5757 17.8193C34.6984 17.9336 34.8338 18.014 34.9819 18.0605C35.1343 18.1071 35.2909 18.1304 35.4517 18.1304C35.951 18.1304 36.3467 18.0352 36.6387 17.8447C36.9307 17.6501 37.1401 17.3898 37.2671 17.064C37.3983 16.7339 37.4639 16.3678 37.4639 15.9658ZM41.3867 13.2109V19H40.2124V12.1318H41.355L41.3867 13.2109ZM43.5322 12.0938L43.5259 13.1855C43.4285 13.1644 43.3354 13.1517 43.2466 13.1475C43.1619 13.139 43.0646 13.1348 42.9546 13.1348C42.6838 13.1348 42.4447 13.1771 42.2373 13.2617C42.0299 13.3464 41.8543 13.4648 41.7104 13.6172C41.5666 13.7695 41.4523 13.9515 41.3677 14.1631C41.2873 14.3704 41.2344 14.599 41.209 14.8486L40.8789 15.0391C40.8789 14.6243 40.9191 14.235 40.9995 13.8711C41.0841 13.5072 41.2132 13.1855 41.3867 12.9062C41.5602 12.6227 41.7803 12.4027 42.0469 12.2461C42.3177 12.0853 42.6393 12.0049 43.0117 12.0049C43.0964 12.0049 43.1937 12.0155 43.3037 12.0366C43.4137 12.0535 43.4899 12.0726 43.5322 12.0938ZM53.9614 15.8896V16.8545H47.2837V16.1626L51.4224 9.75781H52.3809L51.3525 11.6113L48.6167 15.8896H53.9614ZM52.6729 9.75781V19H51.4985V9.75781H52.6729ZM56.7417 13.8013H57.5796C57.9901 13.8013 58.3286 13.7336 58.5952 13.5981C58.866 13.4585 59.0671 13.2702 59.1982 13.0332C59.3337 12.792 59.4014 12.5212 59.4014 12.2207C59.4014 11.8652 59.3421 11.5669 59.2236 11.3257C59.1051 11.0845 58.9274 10.9025 58.6904 10.7798C58.4535 10.6571 58.153 10.5957 57.7891 10.5957C57.459 10.5957 57.167 10.6613 56.9131 10.7925C56.6634 10.9194 56.4666 11.1014 56.3228 11.3384C56.1831 11.5754 56.1133 11.8547 56.1133 12.1763H54.939C54.939 11.7065 55.0575 11.2791 55.2944 10.894C55.5314 10.509 55.8636 10.2021 56.291 9.97363C56.7227 9.74512 57.222 9.63086 57.7891 9.63086C58.3477 9.63086 58.8364 9.73031 59.2554 9.9292C59.6743 10.1239 60.0002 10.4159 60.2329 10.8052C60.4657 11.1903 60.582 11.6706 60.582 12.2461C60.582 12.4788 60.527 12.7285 60.417 12.9951C60.3112 13.2575 60.144 13.5029 59.9155 13.7314C59.6912 13.96 59.3993 14.1483 59.0396 14.2964C58.6799 14.4403 58.2482 14.5122 57.7446 14.5122H56.7417V13.8013ZM56.7417 14.7661V14.0615H57.7446C58.3328 14.0615 58.8195 14.1313 59.2046 14.271C59.5897 14.4106 59.8923 14.5968 60.1123 14.8296C60.3366 15.0623 60.4932 15.3184 60.582 15.5977C60.6751 15.8727 60.7217 16.1478 60.7217 16.4229C60.7217 16.8545 60.6476 17.2375 60.4995 17.5718C60.3556 17.9061 60.1504 18.1896 59.8838 18.4224C59.6214 18.6551 59.3125 18.8307 58.957 18.9492C58.6016 19.0677 58.2144 19.127 57.7954 19.127C57.3934 19.127 57.0146 19.0698 56.6592 18.9556C56.3079 18.8413 55.9969 18.6763 55.7261 18.4604C55.4552 18.2404 55.2437 17.9717 55.0913 17.6543C54.939 17.3327 54.8628 16.9666 54.8628 16.5562H56.0371C56.0371 16.8778 56.1069 17.1592 56.2466 17.4004C56.3905 17.6416 56.5936 17.8299 56.856 17.9653C57.1226 18.0965 57.4357 18.1621 57.7954 18.1621C58.1551 18.1621 58.464 18.1007 58.7222 17.978C58.9845 17.8511 59.1855 17.6606 59.3252 17.4067C59.4691 17.1528 59.541 16.8333 59.541 16.4482C59.541 16.0632 59.4606 15.7479 59.2998 15.5024C59.139 15.2528 58.9105 15.0687 58.6143 14.9502C58.3223 14.8275 57.9774 14.7661 57.5796 14.7661H56.7417ZM66.8472 9.74512H66.9487V10.7417H66.8472C66.2251 10.7417 65.7046 10.8433 65.2856 11.0464C64.8667 11.2453 64.5345 11.514 64.2891 11.8525C64.0436 12.1868 63.8659 12.5635 63.7559 12.9824C63.6501 13.4014 63.5972 13.8267 63.5972 14.2583V15.6167C63.5972 16.0272 63.6458 16.3911 63.7432 16.7085C63.8405 17.0216 63.9738 17.2861 64.1431 17.502C64.3123 17.7178 64.5028 17.8807 64.7144 17.9907C64.9302 18.1007 65.1545 18.1558 65.3872 18.1558C65.658 18.1558 65.8993 18.105 66.1108 18.0034C66.3224 17.8976 66.5002 17.7516 66.644 17.5654C66.7922 17.375 66.9043 17.1507 66.9805 16.8926C67.0566 16.6344 67.0947 16.3509 67.0947 16.042C67.0947 15.7669 67.0609 15.5024 66.9932 15.2485C66.9255 14.9904 66.8218 14.7619 66.6821 14.563C66.5425 14.3599 66.3669 14.2012 66.1553 14.0869C65.9479 13.9684 65.7004 13.9092 65.4126 13.9092C65.0868 13.9092 64.7821 13.9896 64.4985 14.1504C64.2192 14.307 63.9886 14.5143 63.8066 14.7725C63.6289 15.0264 63.5273 15.3035 63.502 15.604L62.8799 15.5977C62.9391 15.1237 63.0492 14.7196 63.21 14.3853C63.375 14.0467 63.5781 13.7716 63.8193 13.5601C64.0648 13.3442 64.3377 13.1877 64.6382 13.0903C64.9429 12.9888 65.2645 12.938 65.603 12.938C66.0643 12.938 66.4621 13.0247 66.7964 13.1982C67.1307 13.3717 67.4058 13.6045 67.6216 13.8965C67.8374 14.1842 67.9961 14.5101 68.0977 14.874C68.2035 15.2337 68.2563 15.604 68.2563 15.9849C68.2563 16.4207 68.195 16.8291 68.0723 17.21C67.9495 17.5908 67.7655 17.9251 67.52 18.2129C67.2788 18.5007 66.9805 18.7249 66.625 18.8857C66.2695 19.0465 65.8569 19.127 65.3872 19.127C64.8879 19.127 64.452 19.0254 64.0796 18.8223C63.7072 18.6149 63.3983 18.3398 63.1528 17.9971C62.9074 17.6543 62.7233 17.2734 62.6006 16.8545C62.4779 16.4355 62.4165 16.0103 62.4165 15.5786V15.0264C62.4165 14.3747 62.4821 13.7357 62.6133 13.1094C62.7445 12.4831 62.9709 11.916 63.2925 11.4082C63.6183 10.9004 64.069 10.4963 64.6445 10.1958C65.2201 9.89535 65.9543 9.74512 66.8472 9.74512ZM74.1787 13.2109V19H73.0044V12.1318H74.147L74.1787 13.2109ZM76.3242 12.0938L76.3179 13.1855C76.2205 13.1644 76.1274 13.1517 76.0386 13.1475C75.9539 13.139 75.8566 13.1348 75.7466 13.1348C75.4757 13.1348 75.2367 13.1771 75.0293 13.2617C74.8219 13.3464 74.6463 13.4648 74.5024 13.6172C74.3586 13.7695 74.2443 13.9515 74.1597 14.1631C74.0793 14.3704 74.0264 14.599 74.001 14.8486L73.6709 15.0391C73.6709 14.6243 73.7111 14.235 73.7915 13.8711C73.8761 13.5072 74.0052 13.1855 74.1787 12.9062C74.3522 12.6227 74.5723 12.4027 74.8389 12.2461C75.1097 12.0853 75.4313 12.0049 75.8037 12.0049C75.8883 12.0049 75.9857 12.0155 76.0957 12.0366C76.2057 12.0535 76.2819 12.0726 76.3242 12.0938ZM80.1328 19.127C79.6546 19.127 79.2209 19.0465 78.8315 18.8857C78.4465 18.7207 78.1143 18.4901 77.835 18.1938C77.5599 17.8976 77.3483 17.5464 77.2002 17.1401C77.0521 16.7339 76.978 16.2896 76.978 15.8071V15.5405C76.978 14.9819 77.0605 14.4847 77.2256 14.0488C77.3906 13.6087 77.6149 13.2363 77.8984 12.9316C78.182 12.627 78.5036 12.3963 78.8633 12.2397C79.223 12.0832 79.5954 12.0049 79.9805 12.0049C80.4714 12.0049 80.8945 12.0895 81.25 12.2588C81.6097 12.4281 81.9038 12.665 82.1323 12.9697C82.3608 13.2702 82.5301 13.6257 82.6401 14.0361C82.7502 14.4424 82.8052 14.8867 82.8052 15.3691V15.896H77.6763V14.9375H81.6309V14.8486C81.6139 14.5439 81.5505 14.2477 81.4404 13.96C81.3346 13.6722 81.1654 13.4352 80.9326 13.249C80.6999 13.0628 80.3825 12.9697 79.9805 12.9697C79.7139 12.9697 79.4684 13.0269 79.2441 13.1411C79.0199 13.2511 78.8273 13.4162 78.6665 13.6362C78.5057 13.8563 78.3809 14.125 78.292 14.4424C78.2031 14.7598 78.1587 15.1258 78.1587 15.5405V15.8071C78.1587 16.133 78.2031 16.4398 78.292 16.7275C78.3851 17.0111 78.5184 17.2607 78.6919 17.4766C78.8696 17.6924 79.0833 17.8617 79.333 17.9844C79.5869 18.1071 79.8747 18.1685 80.1963 18.1685C80.611 18.1685 80.9622 18.0838 81.25 17.9146C81.5378 17.7453 81.7896 17.5189 82.0054 17.2354L82.7163 17.8003C82.5682 18.0246 82.3799 18.2383 82.1514 18.4414C81.9229 18.6445 81.6414 18.8096 81.3071 18.9365C80.9771 19.0635 80.5856 19.127 80.1328 19.127ZM86.1758 17.9399L88.0547 12.1318H89.2544L86.7852 19H85.998L86.1758 17.9399ZM84.6079 12.1318L86.5439 17.9717L86.6772 19H85.8901L83.4019 12.1318H84.6079ZM91.6602 12.1318V19H90.4795V12.1318H91.6602ZM90.3906 10.3101C90.3906 10.1196 90.4478 9.95882 90.562 9.82764C90.6805 9.69645 90.854 9.63086 91.0825 9.63086C91.3068 9.63086 91.4782 9.69645 91.5967 9.82764C91.7194 9.95882 91.7808 10.1196 91.7808 10.3101C91.7808 10.492 91.7194 10.6486 91.5967 10.7798C91.4782 10.9067 91.3068 10.9702 91.0825 10.9702C90.854 10.9702 90.6805 10.9067 90.562 10.7798C90.4478 10.6486 90.3906 10.492 90.3906 10.3101ZM96.3955 19.127C95.9173 19.127 95.4836 19.0465 95.0942 18.8857C94.7091 18.7207 94.377 18.4901 94.0977 18.1938C93.8226 17.8976 93.611 17.5464 93.4629 17.1401C93.3148 16.7339 93.2407 16.2896 93.2407 15.8071V15.5405C93.2407 14.9819 93.3232 14.4847 93.4883 14.0488C93.6533 13.6087 93.8776 13.2363 94.1611 12.9316C94.4447 12.627 94.7663 12.3963 95.126 12.2397C95.4857 12.0832 95.8581 12.0049 96.2432 12.0049C96.734 12.0049 97.1572 12.0895 97.5127 12.2588C97.8724 12.4281 98.1665 12.665 98.395 12.9697C98.6235 13.2702 98.7928 13.6257 98.9028 14.0361C99.0129 14.4424 99.0679 14.8867 99.0679 15.3691V15.896H93.939V14.9375H97.8936V14.8486C97.8766 14.5439 97.8132 14.2477 97.7031 13.96C97.5973 13.6722 97.4281 13.4352 97.1953 13.249C96.9626 13.0628 96.6452 12.9697 96.2432 12.9697C95.9766 12.9697 95.7311 13.0269 95.5068 13.1411C95.2826 13.2511 95.09 13.4162 94.9292 13.6362C94.7684 13.8563 94.6436 14.125 94.5547 14.4424C94.4658 14.7598 94.4214 15.1258 94.4214 15.5405V15.8071C94.4214 16.133 94.4658 16.4398 94.5547 16.7275C94.6478 17.0111 94.7811 17.2607 94.9546 17.4766C95.1323 17.6924 95.346 17.8617 95.5957 17.9844C95.8496 18.1071 96.1374 18.1685 96.459 18.1685C96.8737 18.1685 97.2249 18.0838 97.5127 17.9146C97.8005 17.7453 98.0522 17.5189 98.2681 17.2354L98.979 17.8003C98.8309 18.0246 98.6426 18.2383 98.4141 18.4414C98.1855 18.6445 97.9041 18.8096 97.5698 18.9365C97.2397 19.0635 96.8483 19.127 96.3955 19.127ZM102.178 17.7812L103.943 12.1318H104.717L104.565 13.2554L102.769 19H102.013L102.178 17.7812ZM100.991 12.1318L102.496 17.8447L102.604 19H101.81L99.8169 12.1318H100.991ZM106.406 17.8003L107.84 12.1318H109.008L107.015 19H106.228L106.406 17.8003ZM104.889 12.1318L106.615 17.686L106.812 19H106.063L104.216 13.2427L104.063 12.1318H104.889ZM114.213 17.1782C114.213 17.009 114.175 16.8524 114.099 16.7085C114.027 16.5604 113.877 16.4271 113.648 16.3086C113.424 16.1859 113.086 16.0801 112.633 15.9912C112.252 15.9108 111.907 15.8156 111.598 15.7056C111.293 15.5955 111.033 15.4622 110.817 15.3057C110.606 15.1491 110.443 14.965 110.329 14.7534C110.214 14.5418 110.157 14.2943 110.157 14.0107C110.157 13.7399 110.216 13.4839 110.335 13.2427C110.458 13.0015 110.629 12.7878 110.849 12.6016C111.073 12.4154 111.342 12.2694 111.655 12.1636C111.968 12.0578 112.318 12.0049 112.703 12.0049C113.253 12.0049 113.722 12.1022 114.112 12.2969C114.501 12.4915 114.799 12.7518 115.007 13.0776C115.214 13.3993 115.318 13.7568 115.318 14.1504H114.144C114.144 13.96 114.086 13.7759 113.972 13.5981C113.862 13.4162 113.699 13.266 113.483 13.1475C113.272 13.029 113.012 12.9697 112.703 12.9697C112.377 12.9697 112.112 13.0205 111.909 13.1221C111.71 13.2194 111.564 13.3442 111.471 13.4966C111.382 13.6489 111.338 13.8097 111.338 13.979C111.338 14.106 111.359 14.2202 111.401 14.3218C111.448 14.4191 111.528 14.5101 111.643 14.5947C111.757 14.6751 111.918 14.7513 112.125 14.8232C112.332 14.8952 112.597 14.9671 112.918 15.0391C113.481 15.166 113.945 15.3184 114.309 15.4961C114.673 15.6738 114.943 15.8918 115.121 16.1499C115.299 16.408 115.388 16.7212 115.388 17.0894C115.388 17.3898 115.324 17.6649 115.197 17.9146C115.075 18.1642 114.895 18.38 114.658 18.562C114.425 18.7397 114.146 18.8794 113.82 18.981C113.498 19.0783 113.136 19.127 112.734 19.127C112.129 19.127 111.617 19.019 111.198 18.8032C110.779 18.5874 110.462 18.3081 110.246 17.9653C110.03 17.6226 109.922 17.2607 109.922 16.8799H111.103C111.12 17.2015 111.213 17.4575 111.382 17.6479C111.552 17.8341 111.759 17.9674 112.004 18.0479C112.25 18.124 112.493 18.1621 112.734 18.1621C113.056 18.1621 113.325 18.1198 113.541 18.0352C113.761 17.9505 113.928 17.8341 114.042 17.686C114.156 17.5379 114.213 17.3687 114.213 17.1782ZM119.844 15.6421V15.4961C119.844 15.001 119.916 14.5418 120.06 14.1187C120.203 13.6912 120.411 13.321 120.682 13.0078C120.952 12.6904 121.28 12.445 121.666 12.2715C122.051 12.0938 122.482 12.0049 122.96 12.0049C123.443 12.0049 123.877 12.0938 124.262 12.2715C124.651 12.445 124.981 12.6904 125.252 13.0078C125.527 13.321 125.736 13.6912 125.88 14.1187C126.024 14.5418 126.096 15.001 126.096 15.4961V15.6421C126.096 16.1372 126.024 16.5964 125.88 17.0195C125.736 17.4427 125.527 17.813 125.252 18.1304C124.981 18.4435 124.653 18.689 124.268 18.8667C123.887 19.0402 123.456 19.127 122.973 19.127C122.491 19.127 122.057 19.0402 121.672 18.8667C121.287 18.689 120.957 18.4435 120.682 18.1304C120.411 17.813 120.203 17.4427 120.06 17.0195C119.916 16.5964 119.844 16.1372 119.844 15.6421ZM121.018 15.4961V15.6421C121.018 15.9849 121.058 16.3086 121.139 16.6133C121.219 16.9137 121.34 17.1803 121.5 17.4131C121.666 17.6458 121.871 17.8299 122.116 17.9653C122.362 18.0965 122.647 18.1621 122.973 18.1621C123.295 18.1621 123.576 18.0965 123.817 17.9653C124.063 17.8299 124.266 17.6458 124.427 17.4131C124.588 17.1803 124.708 16.9137 124.789 16.6133C124.873 16.3086 124.916 15.9849 124.916 15.6421V15.4961C124.916 15.1576 124.873 14.8381 124.789 14.5376C124.708 14.2329 124.585 13.9642 124.42 13.7314C124.26 13.4945 124.056 13.3083 123.811 13.1729C123.57 13.0374 123.286 12.9697 122.96 12.9697C122.639 12.9697 122.355 13.0374 122.11 13.1729C121.869 13.3083 121.666 13.4945 121.5 13.7314C121.34 13.9642 121.219 14.2329 121.139 14.5376C121.058 14.8381 121.018 15.1576 121.018 15.4961ZM128.743 13.5981V19H127.569V12.1318H128.68L128.743 13.5981ZM128.464 15.3057L127.975 15.2866C127.979 14.8169 128.049 14.3831 128.185 13.9854C128.32 13.5833 128.51 13.2342 128.756 12.938C129.001 12.6418 129.293 12.4132 129.632 12.2524C129.975 12.0874 130.353 12.0049 130.768 12.0049C131.107 12.0049 131.411 12.0514 131.682 12.1445C131.953 12.2334 132.184 12.3773 132.374 12.5762C132.569 12.7751 132.717 13.0332 132.818 13.3506C132.92 13.6637 132.971 14.0467 132.971 14.4995V19H131.79V14.4868C131.79 14.1271 131.737 13.8394 131.631 13.6235C131.526 13.4035 131.371 13.2448 131.168 13.1475C130.965 13.0459 130.715 12.9951 130.419 12.9951C130.127 12.9951 129.86 13.0565 129.619 13.1792C129.382 13.3019 129.177 13.4712 129.003 13.687C128.834 13.9028 128.701 14.1504 128.604 14.4297C128.51 14.7048 128.464 14.9967 128.464 15.3057Z" fill="white"/>
<path d="M152.25 17.9792L155.292 17.2083L156.562 21.125L152.25 17.9792ZM159.25 12.9167H153.896L152.25 7.875L150.604 12.9167H145.25L149.583 16.0417L147.937 21.0833L152.271 17.9583L154.937 16.0417L159.25 12.9167Z" fill="#219653"/>
<path d="M167.738 9.25781V18.5H166.532V9.25781H167.738ZM170.708 9.25781V10.2607H163.567V9.25781H170.708ZM172.594 12.7109V18.5H171.419V11.6318H172.562L172.594 12.7109ZM174.739 11.5938L174.733 12.6855C174.635 12.6644 174.542 12.6517 174.453 12.6475C174.369 12.639 174.272 12.6348 174.161 12.6348C173.891 12.6348 173.652 12.6771 173.444 12.7617C173.237 12.8464 173.061 12.9648 172.917 13.1172C172.773 13.2695 172.659 13.4515 172.575 13.6631C172.494 13.8704 172.441 14.099 172.416 14.3486L172.086 14.5391C172.086 14.1243 172.126 13.735 172.206 13.3711C172.291 13.0072 172.42 12.6855 172.594 12.4062C172.767 12.1227 172.987 11.9027 173.254 11.7461C173.525 11.5853 173.846 11.5049 174.219 11.5049C174.303 11.5049 174.401 11.5155 174.511 11.5366C174.621 11.5535 174.697 11.5726 174.739 11.5938ZM180.027 16.9131V11.6318H181.207V18.5H180.084L180.027 16.9131ZM180.249 15.4658L180.738 15.4531C180.738 15.9102 180.689 16.3333 180.592 16.7227C180.499 17.1077 180.346 17.4421 180.135 17.7256C179.923 18.0091 179.646 18.2313 179.303 18.3921C178.96 18.5487 178.543 18.627 178.053 18.627C177.718 18.627 177.411 18.5783 177.132 18.481C176.857 18.3836 176.62 18.2334 176.421 18.0303C176.222 17.8271 176.068 17.5627 175.958 17.2368C175.852 16.911 175.799 16.5195 175.799 16.0625V11.6318H176.974V16.0752C176.974 16.3841 177.007 16.6401 177.075 16.8433C177.147 17.0422 177.242 17.2008 177.361 17.3193C177.483 17.4336 177.619 17.514 177.767 17.5605C177.919 17.6071 178.076 17.6304 178.237 17.6304C178.736 17.6304 179.132 17.5352 179.424 17.3447C179.716 17.1501 179.925 16.8898 180.052 16.564C180.183 16.2339 180.249 15.8678 180.249 15.4658ZM186.996 16.6782C186.996 16.509 186.958 16.3524 186.882 16.2085C186.81 16.0604 186.66 15.9271 186.432 15.8086C186.207 15.6859 185.869 15.5801 185.416 15.4912C185.035 15.4108 184.69 15.3156 184.381 15.2056C184.077 15.0955 183.816 14.9622 183.6 14.8057C183.389 14.6491 183.226 14.465 183.112 14.2534C182.997 14.0418 182.94 13.7943 182.94 13.5107C182.94 13.2399 183 12.9839 183.118 12.7427C183.241 12.5015 183.412 12.2878 183.632 12.1016C183.856 11.9154 184.125 11.7694 184.438 11.6636C184.752 11.5578 185.101 11.5049 185.486 11.5049C186.036 11.5049 186.506 11.6022 186.895 11.7969C187.284 11.9915 187.583 12.2518 187.79 12.5776C187.997 12.8993 188.101 13.2568 188.101 13.6504H186.927C186.927 13.46 186.87 13.2759 186.755 13.0981C186.645 12.9162 186.482 12.766 186.266 12.6475C186.055 12.529 185.795 12.4697 185.486 12.4697C185.16 12.4697 184.895 12.5205 184.692 12.6221C184.493 12.7194 184.347 12.8442 184.254 12.9966C184.165 13.1489 184.121 13.3097 184.121 13.479C184.121 13.606 184.142 13.7202 184.184 13.8218C184.231 13.9191 184.311 14.0101 184.426 14.0947C184.54 14.1751 184.701 14.2513 184.908 14.3232C185.115 14.3952 185.38 14.4671 185.702 14.5391C186.264 14.666 186.728 14.8184 187.092 14.9961C187.456 15.1738 187.726 15.3918 187.904 15.6499C188.082 15.908 188.171 16.2212 188.171 16.5894C188.171 16.8898 188.107 17.1649 187.98 17.4146C187.858 17.6642 187.678 17.88 187.441 18.062C187.208 18.2397 186.929 18.3794 186.603 18.481C186.281 18.5783 185.919 18.627 185.517 18.627C184.912 18.627 184.4 18.519 183.981 18.3032C183.562 18.0874 183.245 17.8081 183.029 17.4653C182.813 17.1226 182.705 16.7607 182.705 16.3799H183.886C183.903 16.7015 183.996 16.9575 184.165 17.1479C184.335 17.3341 184.542 17.4674 184.787 17.5479C185.033 17.624 185.276 17.6621 185.517 17.6621C185.839 17.6621 186.108 17.6198 186.324 17.5352C186.544 17.4505 186.711 17.3341 186.825 17.186C186.939 17.0379 186.996 16.8687 186.996 16.6782ZM192.589 11.6318V12.5332H188.875V11.6318H192.589ZM190.132 9.9624H191.307V16.7988C191.307 17.0316 191.342 17.2072 191.414 17.3257C191.486 17.4442 191.579 17.5225 191.694 17.5605C191.808 17.5986 191.931 17.6177 192.062 17.6177C192.159 17.6177 192.261 17.6092 192.367 17.5923C192.477 17.5711 192.559 17.5542 192.614 17.5415L192.62 18.5C192.527 18.5296 192.405 18.5571 192.252 18.5825C192.104 18.6121 191.924 18.627 191.713 18.627C191.425 18.627 191.161 18.5698 190.919 18.4556C190.678 18.3413 190.486 18.1509 190.342 17.8843C190.202 17.6134 190.132 17.2495 190.132 16.7925V9.9624ZM195.141 12.9521V21.1406H193.96V11.6318H195.039L195.141 12.9521ZM199.768 15.0088V15.1421C199.768 15.6414 199.709 16.1048 199.59 16.5322C199.472 16.9554 199.298 17.3236 199.07 17.6367C198.845 17.9499 198.568 18.1932 198.238 18.3667C197.908 18.5402 197.529 18.627 197.102 18.627C196.666 18.627 196.281 18.555 195.947 18.4111C195.612 18.2673 195.329 18.0578 195.096 17.7827C194.863 17.5076 194.677 17.1776 194.537 16.7925C194.402 16.4074 194.309 15.9736 194.258 15.4912V14.7803C194.309 14.2725 194.404 13.8175 194.544 13.4155C194.683 13.0135 194.868 12.6707 195.096 12.3872C195.329 12.0994 195.61 11.8815 195.94 11.7334C196.27 11.5811 196.651 11.5049 197.083 11.5049C197.515 11.5049 197.898 11.5895 198.232 11.7588C198.566 11.9238 198.848 12.1608 199.076 12.4697C199.305 12.7786 199.476 13.1489 199.59 13.5806C199.709 14.008 199.768 14.484 199.768 15.0088ZM198.587 15.1421V15.0088C198.587 14.666 198.551 14.3444 198.479 14.0439C198.407 13.7393 198.295 13.4727 198.143 13.2441C197.995 13.0114 197.804 12.8294 197.572 12.6982C197.339 12.5628 197.062 12.4951 196.74 12.4951C196.444 12.4951 196.186 12.5459 195.966 12.6475C195.75 12.749 195.566 12.8866 195.413 13.0601C195.261 13.2293 195.136 13.424 195.039 13.644C194.946 13.8599 194.876 14.0841 194.829 14.3169V15.9609C194.914 16.2572 195.033 16.5365 195.185 16.7988C195.337 17.057 195.54 17.2664 195.794 17.4272C196.048 17.5838 196.368 17.6621 196.753 17.6621C197.07 17.6621 197.343 17.5965 197.572 17.4653C197.804 17.3299 197.995 17.1458 198.143 16.9131C198.295 16.6803 198.407 16.4137 198.479 16.1133C198.551 15.8086 198.587 15.4849 198.587 15.1421ZM202.542 11.6318V18.5H201.361V11.6318H202.542ZM201.272 9.81006C201.272 9.61963 201.329 9.45882 201.444 9.32764C201.562 9.19645 201.736 9.13086 201.964 9.13086C202.189 9.13086 202.36 9.19645 202.478 9.32764C202.601 9.45882 202.662 9.61963 202.662 9.81006C202.662 9.99202 202.601 10.1486 202.478 10.2798C202.36 10.4067 202.189 10.4702 201.964 10.4702C201.736 10.4702 201.562 10.4067 201.444 10.2798C201.329 10.1486 201.272 9.99202 201.272 9.81006ZM205.703 8.75V18.5H204.522V8.75H205.703ZM207.277 15.1421V14.9961C207.277 14.501 207.349 14.0418 207.493 13.6187C207.637 13.1912 207.844 12.821 208.115 12.5078C208.386 12.1904 208.714 11.945 209.099 11.7715C209.484 11.5938 209.916 11.5049 210.394 11.5049C210.876 11.5049 211.31 11.5938 211.695 11.7715C212.085 11.945 212.415 12.1904 212.685 12.5078C212.96 12.821 213.17 13.1912 213.314 13.6187C213.458 14.0418 213.53 14.501 213.53 14.9961V15.1421C213.53 15.6372 213.458 16.0964 213.314 16.5195C213.17 16.9427 212.96 17.313 212.685 17.6304C212.415 17.9435 212.087 18.189 211.702 18.3667C211.321 18.5402 210.889 18.627 210.407 18.627C209.924 18.627 209.49 18.5402 209.105 18.3667C208.72 18.189 208.39 17.9435 208.115 17.6304C207.844 17.313 207.637 16.9427 207.493 16.5195C207.349 16.0964 207.277 15.6372 207.277 15.1421ZM208.452 14.9961V15.1421C208.452 15.4849 208.492 15.8086 208.572 16.1133C208.653 16.4137 208.773 16.6803 208.934 16.9131C209.099 17.1458 209.304 17.3299 209.55 17.4653C209.795 17.5965 210.081 17.6621 210.407 17.6621C210.728 17.6621 211.01 17.5965 211.251 17.4653C211.496 17.3299 211.699 17.1458 211.86 16.9131C212.021 16.6803 212.142 16.4137 212.222 16.1133C212.307 15.8086 212.349 15.4849 212.349 15.1421V14.9961C212.349 14.6576 212.307 14.3381 212.222 14.0376C212.142 13.7329 212.019 13.4642 211.854 13.2314C211.693 12.9945 211.49 12.8083 211.245 12.6729C211.003 12.5374 210.72 12.4697 210.394 12.4697C210.072 12.4697 209.789 12.5374 209.543 12.6729C209.302 12.8083 209.099 12.9945 208.934 13.2314C208.773 13.4642 208.653 13.7329 208.572 14.0376C208.492 14.3381 208.452 14.6576 208.452 14.9961ZM217.878 11.6318V12.5332H214.164V11.6318H217.878ZM215.421 9.9624H216.596V16.7988C216.596 17.0316 216.632 17.2072 216.703 17.3257C216.775 17.4442 216.869 17.5225 216.983 17.5605C217.097 17.5986 217.22 17.6177 217.351 17.6177C217.448 17.6177 217.55 17.6092 217.656 17.5923C217.766 17.5711 217.848 17.5542 217.903 17.5415L217.91 18.5C217.816 18.5296 217.694 18.5571 217.541 18.5825C217.393 18.6121 217.213 18.627 217.002 18.627C216.714 18.627 216.45 18.5698 216.208 18.4556C215.967 18.3413 215.775 18.1509 215.631 17.8843C215.491 17.6134 215.421 17.2495 215.421 16.7925V9.9624Z" fill="white"/>
</svg>
