<svg xmlns="http://www.w3.org/2000/svg" width="15" height="21" viewBox="0 0 15 21" fill="none">
  <path d="M10.489 4.25C10.489 6.04493 9.03284 7.5 7.23658 7.5C5.44033 7.5 3.98413 6.04493 3.98413 4.25C3.98413 2.45507 5.44033 1 7.23658 1C9.03284 1 10.489 2.45507 10.489 4.25Z" stroke="white" stroke-width="1.5"/>
  <path d="M13.4914 15.25C13.4914 16.3256 12.8818 17.3702 11.7539 18.1752C10.6274 18.9793 9.03271 19.5 7.23665 19.5C5.4406 19.5 3.8459 18.9793 2.71942 18.1752C1.5915 17.3702 0.981934 16.3256 0.981934 15.25C0.981934 14.1744 1.5915 13.1298 2.71942 12.3248C3.8459 11.5207 5.4406 11 7.23665 11C9.03271 11 10.6274 11.5207 11.7539 12.3248C12.8818 13.1298 13.4914 14.1744 13.4914 15.25Z" stroke="white" stroke-width="1.5"/>
</svg>