<svg width="49" height="34" viewBox="0 0 49 34" fill="none" xmlns="http://www.w3.org/2000/svg">
<rect x="1.32292" y="1.32292" width="46.0405" height="30.8759" rx="14.5521" fill="white" stroke="#D9D9D9" stroke-width="2.64583"/>
<path fill-rule="evenodd" clip-rule="evenodd" d="M14.7801 22.6162H11.8307L9.61894 14.1783C9.51396 13.7902 9.29106 13.447 8.96318 13.2853C8.14493 12.8789 7.24327 12.5554 6.25964 12.3923V12.0674H11.011C11.6667 12.0674 12.1585 12.5554 12.2405 13.1222L13.3881 19.2087L16.3361 12.0674H19.2036L14.7801 22.6162ZM20.8429 22.6162H18.0574L20.3511 12.0674H23.1366L20.8429 22.6162ZM26.7404 14.9896C26.8224 14.4214 27.3142 14.0966 27.888 14.0966C28.7896 14.015 29.7718 14.1781 30.5915 14.5832L31.0833 12.312C30.2636 11.9871 29.362 11.824 28.5437 11.824C25.8402 11.824 23.8729 13.2851 23.8729 15.313C23.8729 16.8558 25.2664 17.6658 26.25 18.1538C27.3142 18.6404 27.724 18.9652 27.642 19.4518C27.642 20.1817 26.8224 20.5065 26.0041 20.5065C25.0205 20.5065 24.0368 20.2632 23.1366 19.8568L22.6448 22.1294C23.6284 22.5344 24.6926 22.6976 25.6762 22.6976C28.7076 22.7777 30.5915 21.318 30.5915 19.1269C30.5915 16.3678 26.7404 16.206 26.7404 14.9896ZM40.3401 22.6162L38.1284 12.0674H35.7527C35.2609 12.0674 34.7691 12.3923 34.6052 12.8789L30.5096 22.6162H33.3771L33.9494 21.0749H37.4726L37.8005 22.6162H40.3401ZM36.1625 14.9079L36.9807 18.8836H34.687L36.1625 14.9079Z" fill="#172B85"/>
</svg>
